<svg xmlns="http://www.w3.org/2000/svg" width="55.565" height="55.565" viewBox="0 0 55.565 55.565"><defs><style>.a{fill:#fff;}</style></defs><g transform="translate(0 -0.001)"><path class="a" d="M45.848,6.677a27.785,27.785,0,1,0,3.041,39.172A27.647,27.647,0,0,0,45.848,6.677Zm5.385,29.166-8.491-2.927a15.867,15.867,0,0,0,0-10.256l8.482-2.919a24.958,24.958,0,0,1,.006,16.1Zm.477-16.34h0Zm-5.242-7.981-6.76,5.872a15.952,15.952,0,0,0-1.64-1.626,15.737,15.737,0,0,0-7.241-3.5l1.7-8.76A24.669,24.669,0,0,1,43.894,8.978,25.216,25.216,0,0,1,46.467,11.521ZM19.351,4.5a24.457,24.457,0,0,1,3.694-1.01l1.7,8.779a15.742,15.742,0,0,0-8.882,5.124L9.1,11.5A24.722,24.722,0,0,1,19.351,4.5ZM4.334,19.724l8.489,2.927a15.868,15.868,0,0,0,0,10.256L4.331,35.828a24.979,24.979,0,0,1,0-16.1Zm4.75,24.332,6.774-5.884A15.922,15.922,0,0,0,17.5,39.8a15.737,15.737,0,0,0,7.241,3.5L23.025,52.11a24.728,24.728,0,0,1-11.358-5.5A25.089,25.089,0,0,1,9.083,44.056ZM36.21,51.1a24.782,24.782,0,0,1-3.684,1.013L30.817,43.3A15.741,15.741,0,0,0,39.7,38.177l6.77,5.887A24.77,24.77,0,0,1,36.21,51.1Z" transform="translate(0)"/><circle class="a" cx="1.499" cy="1.499" r="1.499" transform="translate(16 8.528)"/><circle class="a" cx="1.499" cy="1.499" r="1.499" transform="translate(5.764 26.311)"/><circle class="a" cx="1.499" cy="1.499" r="1.499" transform="translate(16.047 44.067)"/><circle class="a" cx="1.5" cy="1.5" r="1.5" transform="translate(36.566 44.039)"/><circle class="a" cx="1.499" cy="1.499" r="1.499" transform="translate(46.801 26.256)"/><circle class="a" cx="1.499" cy="1.499" r="1.499" transform="translate(36.519 8.5)"/></g></svg>