<svg xmlns="http://www.w3.org/2000/svg" width="34.364" height="34.135" viewBox="0 0 34.364 34.135"><defs><style>.a{fill:#00723f;}.b{fill:#006635;}.c{fill:#007c46;}.d{fill:#008950;}.e{fill:#45bf7f;}.f{fill:#ffdf65;}.g{fill:#ffcd2c;}.h{fill:#00b76c;}</style></defs><g transform="translate(0 -1.705)"><path class="a" d="M143.421,383.06a.5.5,0,0,0-.448-.273h-3.917a.5.5,0,0,0-.212.047l-7.257,3.366a.5.5,0,0,0-.081.868l5.813,4.148a.5.5,0,0,0,.293.094.513.513,0,0,0,.083-.007.5.5,0,0,0,.327-.2l5.361-7.513A.5.5,0,0,0,143.421,383.06Z" transform="translate(-122.47 -355.468)"/><path class="b" d="M143.255,383.764l.128-.18a.5.5,0,0,0-.41-.8h-3.917a.5.5,0,0,0-.212.047l-7.257,3.366a.5.5,0,0,0-.081.868l1.822,1.3Z" transform="translate(-122.47 -355.468)"/><path class="c" d="M82.393,383.182a.5.5,0,0,0-.492-.4H70.525a.5.5,0,0,0-.457.716l2.014,4.342a.5.5,0,0,0,.669.245l9.362-4.342A.5.5,0,0,0,82.393,383.182Z" transform="translate(-65.315 -355.468)"/><path class="a" d="M82.113,383.748a.5.5,0,0,0-.212-.961H70.525a.5.5,0,0,0-.457.716l.743,1.6h8.375Z" transform="translate(-65.315 -355.468)"/><path class="a" d="M210.706,5.947,204.892,1.8a.5.5,0,0,0-.7.118L198.828,9.43a.5.5,0,0,0,.41.8h3.917a.5.5,0,0,0,.212-.047l7.257-3.366a.5.5,0,0,0,.081-.868Z" transform="translate(-185.377)"/><path class="b" d="M203.367,50.785l7.257-3.366a.5.5,0,0,0,.081-.868l-1.844-1.316-9.877,4.581-.156.218a.5.5,0,0,0,.41.8h3.917A.506.506,0,0,0,203.367,50.785Z" transform="translate(-185.377 -40.605)"/><path class="c" d="M269.342,53.526l-2.013-4.342a.5.5,0,0,0-.669-.245L257.3,53.281a.5.5,0,0,0,.212.961h11.376a.5.5,0,0,0,.457-.716Z" transform="translate(-239.73 -44.016)"/><path class="a" d="M257.508,96.309h11.376a.5.5,0,0,0,.457-.716l-.743-1.6h-8.375L257.3,95.347a.5.5,0,0,0,.212.961Z" transform="translate(-239.73 -86.082)"/><path class="d" d="M33.861,113.49H.5a.5.5,0,0,0-.5.5v18.1a.5.5,0,0,0,.5.5H33.861a.5.5,0,0,0,.5-.5v-18.1A.5.5,0,0,0,33.861,113.49Z" transform="translate(0 -104.271)"/><path class="c" d="M478.591,113.49h-1.815V132.6h1.815a.5.5,0,0,0,.5-.5v-18.1A.5.5,0,0,0,478.591,113.49Z" transform="translate(-444.73 -104.271)"/><path class="e" d="M66.081,153.258a2.723,2.723,0,0,1-2.584-2.515.5.5,0,0,0-.5-.5H40.542a.5.5,0,0,0-.5.5,2.49,2.49,0,0,1-2.309,2.528.5.5,0,0,0-.5.5v7.1a.5.5,0,0,0,.5.5,2.49,2.49,0,0,1,2.309,2.528.5.5,0,0,0,.5.5H62.993a.5.5,0,0,0,.5-.5,2.723,2.723,0,0,1,2.584-2.515.5.5,0,0,0,.5-.5v-7.122A.5.5,0,0,0,66.081,153.258Z" transform="translate(-34.722 -138.55)"/><path class="f" d="M188.869,184.151a4.811,4.811,0,1,0,4.811,4.811A4.817,4.817,0,0,0,188.869,184.151Z" transform="translate(-171.687 -170.183)"/><path class="g" d="M239.911,184.151a4.8,4.8,0,0,0-1.133.136,4.81,4.81,0,0,1,0,9.35,4.811,4.811,0,1,0,1.133-9.486Z" transform="translate(-222.729 -170.183)"/><path class="h" d="M392.863,153.258a2.723,2.723,0,0,1-2.584-2.515.5.5,0,0,0-.5-.5h-2.192c-.319,1.834,1.958,4.733,3.465,4.733v4.7c-1.507,0-3.784,2.9-3.465,4.733h2.192a.5.5,0,0,0,.5-.5,2.723,2.723,0,0,1,2.584-2.515.5.5,0,0,0,.5-.5v-7.122A.5.5,0,0,0,392.863,153.258Z" transform="translate(-361.504 -138.55)"/></g></svg>