<svg xmlns="http://www.w3.org/2000/svg" width="24.144" height="24.143" viewBox="0 0 24.144 24.143"><defs><style>.a{fill:#f2bd0e;}</style></defs><g transform="translate(-921.711 -58)"><path class="a" d="M19.921,2.9a12.073,12.073,0,1,0,1.321,17.02A12.013,12.013,0,0,0,19.921,2.9Zm2.34,12.673L18.571,14.3a6.894,6.894,0,0,0,0-4.456l3.685-1.268a10.844,10.844,0,0,1,0,7Zm.207-7.1h0ZM20.19,5.007,17.253,7.558a6.931,6.931,0,0,0-.713-.707,6.838,6.838,0,0,0-3.146-1.522l.741-3.806A10.719,10.719,0,0,1,19.072,3.9,10.956,10.956,0,0,1,20.19,5.007ZM8.408,1.954a10.627,10.627,0,0,1,1.605-.439l.74,3.815A6.84,6.84,0,0,0,6.894,7.556L3.954,5A10.742,10.742,0,0,1,8.408,1.954ZM1.883,8.57,5.572,9.842a6.9,6.9,0,0,0,0,4.456L1.882,15.568a10.854,10.854,0,0,1,0-7ZM3.947,19.143,6.89,16.586a6.919,6.919,0,0,0,.713.707,6.838,6.838,0,0,0,3.146,1.522L10,22.643a10.745,10.745,0,0,1-4.935-2.389A10.9,10.9,0,0,1,3.947,19.143ZM15.733,22.2a10.767,10.767,0,0,1-1.6.44l-.742-3.827a6.84,6.84,0,0,0,3.86-2.227l2.941,2.558A10.763,10.763,0,0,1,15.733,22.2Z" transform="translate(921.711 57.999)"/><circle class="a" cx="0.651" cy="0.651" r="0.651" transform="translate(928.663 61.705)"/><circle class="a" cx="0.651" cy="0.651" r="0.651" transform="translate(924.216 69.432)"/><circle class="a" cx="0.651" cy="0.651" r="0.651" transform="translate(928.683 77.147)"/><circle class="a" cx="0.652" cy="0.652" r="0.652" transform="translate(937.599 77.135)"/><circle class="a" cx="0.651" cy="0.651" r="0.651" transform="translate(942.046 69.408)"/><circle class="a" cx="0.651" cy="0.651" r="0.651" transform="translate(937.579 61.693)"/></g></svg>