<svg xmlns="http://www.w3.org/2000/svg" width="39.229" height="36.421" viewBox="0 0 39.229 36.421"><defs><style>.a{fill:#737773;}</style></defs><path class="a" d="M35.7,41.9H3.532A3.536,3.536,0,0,1,0,38.37v-24.5a3.536,3.536,0,0,1,3.532-3.532H14.678a.6.6,0,0,1,.075-.029L29.891,5.51a.64.64,0,0,1,.813.449l1.14,4.374H35.7a3.536,3.536,0,0,1,3.532,3.532v24.5A3.537,3.537,0,0,1,35.7,41.9ZM3.532,11.614a2.254,2.254,0,0,0-2.251,2.251v24.5a2.254,2.254,0,0,0,2.251,2.251H35.7a2.254,2.254,0,0,0,2.251-2.251v-7.6H26.021A2.825,2.825,0,0,1,23.2,27.944V24.291a2.825,2.825,0,0,1,2.822-2.822H37.948v-7.6A2.254,2.254,0,0,0,35.7,11.614ZM26.021,22.75a1.543,1.543,0,0,0-1.541,1.541v3.653a1.543,1.543,0,0,0,1.541,1.541H37.948V22.75ZM18.9,10.334H30.52l-.886-3.4Zm9.162,18.06a2.276,2.276,0,1,1,2.276-2.276A2.279,2.279,0,0,1,28.065,28.394Zm0-3.272a1,1,0,1,0,1,1A1,1,0,0,0,28.065,25.122Z" transform="translate(0 -5.481)"/></svg>