<svg xmlns="http://www.w3.org/2000/svg" width="257.613" height="160.984" viewBox="0 0 257.613 160.984"><defs><style>.a{fill:#fff;}.b{fill:#c3c3c3;}.c{fill:#868787;}.d{fill:#d0d1d1;}.e{fill:#242627;}.f{fill:#1c1d1e;}.g{fill:#3d3d3c;}.h{fill:#313131;}</style></defs><g transform="translate(0.009 0)"><g transform="translate(-0.009 -0.001)"><path class="a" d="M200.786,134.961,213,57.339c3.119-18.932-4.515-20.733-4.515-20.733l-58.48-24.5c3.719-1.949,8.257-2.815,13.7-2.542h.133l46.566-2.253.2.117.421-.218h.608c1.435,0,4.936.3,12.234,2.261l54.394,19.618c1.653,1.5,8.577,8.53,6.869,18.254,0,0-14.308,68.414-14.425,68.952-3.166,15.158-15.158,16.078-29.061,17.154-2.862.218-5.84.444-8.7.827-1.5.187-3.041.405-4.6.624a119.066,119.066,0,0,1-16.484,1.559,38.456,38.456,0,0,1-10.784-1.365A.859.859,0,0,0,200.786,134.961Z" transform="translate(-33.239 -1.775)"/><path class="b" d="M208.384,58.731l-12.218,77.622a29.8,29.8,0,0,1-5.006-2.043l-54.527-18.526a20.625,20.625,0,0,1-7.587-17.154l4.975-65.911c0-.125.53-12.25,9.91-18.308.476-.312.975-.608,1.489-.881l58.48,24.5S211.542,39.8,208.384,58.731Z" transform="translate(-28.618 -3.167)"/><path class="c" d="M117.539,162.164,87.793,129.72c-6.76-8.117.444-18.472.444-18.472L116.541,78l-2.612,34.542c-.483,14.862,9.793,21.879,10.222,22.176l.3.187,22.612,7.665-22.448,18.714-.717.359c-1.349.694-2.745,1.38-4.125,2.074a7.157,7.157,0,0,1-2.23-1.552Z" transform="translate(-18.897 -17.368)"/><path class="d" d="M50.216,34.805a18.324,18.324,0,0,1,19.992-5.981l31.454,8.936-2.23,29.209-28.3,33.287s-7.2,10.355-.444,18.472l29.747,32.445a7.158,7.158,0,0,0,2.23,1.5c-2.214,1.092-4.444,2.175-6.667,3.189-12.4,5.669-26.144,10.1-34.207.179-2.55-3.166-5.271-6.277-7.891-9.279l-2.4-2.823q-5.942-6.877-11.938-13.7L30.2,119.5q-5.988-6.9-11.953-13.848L9.834,95.905c-6.417-10.55.936-17.216,1.786-17.934Z" transform="translate(-1.788 -6.337)"/><path class="e" d="M130.887,2.626,176.969.38a9.5,9.5,0,0,1,1.715-.14c2.082,0,6.168.437,13.747,2.48l.218.062,55.423,20,.367.3c.468.39,11.556,9.723,9.06,23.727l-14.441,69.053c-4.008,19.088-19.907,20.335-33.942,21.427-2.8.218-5.708.429-8.421.78l-4.546.616a122.137,122.137,0,0,1-17.24,1.622,43.664,43.664,0,0,1-12.289-1.559,32.992,32.992,0,0,1-6.152-2.456l-26.043-8.827L108.945,148.7l-.546.257c-.218.109-.429.211-.632.335-3.657,1.825-7.361,3.68-11.064,5.38-5.123,2.339-14.331,6.55-23.392,6.55-6.238,0-12.421-1.98-17.209-7.883-2.5-3.119-5.193-6.152-7.8-9.131l-2.448-2.8c-3.961-4.569-7.953-9.123-11.93-13.684q-4.678-5.372-9.357-10.76-6.059-6.971-12.039-13.879l-8.577-9.9-.2-.343c-7.306-11.758-1.559-21.4,2.659-25L44.617,25.168a23.821,23.821,0,0,1,25.84-7.532l30.207,8.577c.866-4.827,3.556-13.848,11.977-19.3,4.452-2.877,9.91-4.335,16.257-4.335C129.491,2.571,130.2,2.579,130.887,2.626ZM52.36,140.638c2.62,3,5.341,6.113,7.891,9.279,8.062,9.918,21.832,5.458,34.207-.179,2.222-1.014,4.452-2.1,6.667-3.189,1.38-.694,2.776-1.38,4.125-2.074l.717-.359L128.415,125.4,105.8,117.738l-.3-.187c-.429-.3-10.706-7.314-10.222-22.176l2.612-34.5,2.191-29.17L68.672,22.727a18.324,18.324,0,0,0-19.953,5.981L10.02,71.866c-.85.725-8.2,7.392-1.786,17.934l8.413,9.747q5.965,6.932,11.953,13.848,4.678,5.365,9.357,10.745,5.988,6.846,11.938,13.7Zm115.767-7.1a38.456,38.456,0,0,0,10.784,1.365,119.065,119.065,0,0,0,16.484-1.559c1.559-.218,3.119-.437,4.6-.624,2.862-.382,5.84-.608,8.7-.827,13.9-1.068,25.895-1.988,29.061-17.154.117-.538,14.425-68.952,14.425-68.952,1.747-9.723-5.216-16.756-6.869-18.254L190.918,7.912c-7.3-1.965-10.8-2.261-12.234-2.261h-.608l-.421.218-.2-.117L130.887,8.006h-.133c-5.458-.273-9.981.593-13.7,2.542-.515.273-1.014.569-1.489.881-9.357,6.059-9.91,18.183-9.91,18.308L100.68,95.648a20.6,20.6,0,0,0,7.587,17.154l54.527,18.526a29.8,29.8,0,0,0,5.006,2.043,1.074,1.074,0,0,0,.327.164Z" transform="translate(-0.251 -0.239)"/><path class="f" d="M78.915,95.65c2.511,3.9,1.045,9.271-3.275,12.07s-9.856,1.934-12.367-1.926-1.037-9.279,3.283-12.078S76.412,91.782,78.915,95.65Z" transform="translate(-13.864 -20.468)"/><path class="g" d="M69.32,98.311a8.53,8.53,0,0,1,8.616-.2S73.2,90.872,69.32,98.311Z" transform="translate(-15.465 -21.102)"/><path class="f" d="M82.637,44.735c2.425,3.743,1.006,8.959-3.166,11.7s-9.5,1.84-11.938-1.895-1.006-8.959,3.166-11.7S80.22,41,82.637,44.735Z" transform="translate(-14.809 -9.273)"/><path class="g" d="M72.46,49.137s6.511-1.559,9.045.086c0,0-.593-3.384-4.99-3.119A3.731,3.731,0,0,0,72.46,49.137Z" transform="translate(-16.157 -10.337)"/><path class="f" d="M115.8,126.489a8.694,8.694,0,1,1-10.994-6.02,8.858,8.858,0,0,1,10.994,6.02Z" transform="translate(-21.94 -26.644)"/><path class="h" d="M103.016,130.63s-2.253,6.534,5.637,7.213Z" transform="translate(-22.822 -28.96)"/><path class="f" d="M281.173,109.2a8.694,8.694,0,1,1-10.994-6.02A8.873,8.873,0,0,1,281.173,109.2Z" transform="translate(-58.366 -22.835)"/><path class="h" d="M268.336,113.29s-2.253,6.534,5.63,7.213Z" transform="translate(-59.236 -25.141)"/><path class="f" d="M156.6,46.659a8.7,8.7,0,1,1-10.6,6.7A8.873,8.873,0,0,1,156.6,46.659Z" transform="translate(-32.315 -10.416)"/><path class="h" d="M153.18,62.779s4.616,5.146,9.037-1.419Z" transform="translate(-33.937 -13.702)"/><path class="f" d="M198.391,78.562a8.7,8.7,0,1,1,12.522.593A8.873,8.873,0,0,1,198.391,78.562Z" transform="translate(-43.421 -14.312)"/><path class="h" d="M211.418,71.53s-.834-6.862-8.218-4.016Z" transform="translate(-44.955 -14.906)"/><path class="f" d="M151.371,97.8a8.694,8.694,0,1,1,7.743-9.9,8.85,8.85,0,0,1-7.743,9.9Z" transform="translate(-31.433 -17.908)"/><path class="h" d="M152.3,84.8s-6.09-3.275-8.023,4.405Z" transform="translate(-31.976 -18.714)"/><path class="f" d="M206.914,100.247a8.7,8.7,0,1,1-10.074-7.454A8.873,8.873,0,0,1,206.914,100.247Z" transform="translate(-41.955 -20.605)"/><path class="h" d="M193.944,102.32s-3.119,6.168,4.608,7.906Z" transform="translate(-42.779 -22.725)"/><path class="f" d="M186.538,130.183a8.7,8.7,0,1,1,.211,12.53,8.873,8.873,0,0,1-.211-12.53Z" transform="translate(-40.737 -28.303)"/><path class="h" d="M197.94,142.61s6.8-1.279,3.485-8.46Z" transform="translate(-43.796 -29.736)"/><path class="f" d="M147.034,116.625a8.694,8.694,0,1,1-10.37,7.018,8.873,8.873,0,0,1,10.37-7.018Z" transform="translate(-30.27 -25.841)"/><path class="h" d="M144.12,132.851s4.788,4.982,8.983-1.731Z" transform="translate(-31.941 -29.068)"/><path class="f" d="M138.923,158.858a8.694,8.694,0,1,1-10.994-6.02,8.866,8.866,0,0,1,10.994,6.02Z" transform="translate(-27.033 -33.773)"/><path class="h" d="M126.136,163s-2.253,6.534,5.637,7.213Z" transform="translate(-27.914 -36.091)"/><path class="f" d="M77.178,142.561c-2.144,1.7-6.558-.3-9.864-4.483s-4.234-8.928-2.082-10.628,6.558.312,9.864,4.483S79.33,140.822,77.178,142.561Z" transform="translate(-14.309 -28.127)"/><path class="h" d="M77.377,138.28s1.349,1.458,1.349,1.91a15.594,15.594,0,0,1-.226,1.692l-.78.78-1.014.109a6.316,6.316,0,0,1-.226-1.123c0-.335.117-1.24.117-1.24Z" transform="translate(-17.042 -30.645)"/><path class="f" d="M108.178,186.561c-2.152,1.7-6.565-.312-9.864-4.483s-4.234-8.936-2.09-10.628,6.565.3,9.864,4.476S110.322,184.885,108.178,186.561Z" transform="translate(-21.138 -37.819)"/><path class="h" d="M108.369,182.35s1.349,1.466,1.349,1.91a16.126,16.126,0,0,1-.218,1.692l-.78.78-1.014.117a6.284,6.284,0,0,1-.226-1.131c0-.335.109-1.24.109-1.24Z" transform="translate(-23.871 -40.353)"/><path class="f" d="M32.936,125.086c2.043-1.825,6.565-.078,10.137,3.9s4.749,8.671,2.7,10.5-6.565.07-10.137-3.9S30.885,126.9,32.936,125.086Z" transform="translate(-7.229 -27.58)"/><path class="h" d="M36.586,132.478s-1.435-1.38-1.466-1.832a16.126,16.126,0,0,1,.133-1.7l.78-.834,1.006-.172a6.136,6.136,0,0,1,.289,1.115V130.3Z" transform="translate(-7.932 -28.368)"/><path class="f" d="M76.3,163.468c-2.144,1.7-6.558-.312-9.864-4.483s-4.226-8.936-2.082-10.636,6.565.312,9.864,4.483S78.459,161.769,76.3,163.468Z" transform="translate(-14.116 -32.73)"/><path class="h" d="M76.507,159.23s1.349,1.458,1.349,1.91a15.6,15.6,0,0,1-.226,1.692l-.78.78-1.014.117a6.285,6.285,0,0,1-.226-1.131c0-.335.117-1.24.117-1.24Z" transform="translate(-16.851 -35.26)"/><path class="f" d="M83.9,188.611c-2.144,1.7-6.565-.312-9.864-4.483S69.8,175.192,71.953,173.5s6.558.3,9.864,4.483S86.043,186.911,83.9,188.611Z" transform="translate(-15.79 -38.271)"/><path class="h" d="M84.1,184.37s1.349,1.466,1.349,1.918a15.594,15.594,0,0,1-.226,1.692l-.78.78-1.014.117a6.316,6.316,0,0,1-.226-1.123c0-.343.109-1.24.109-1.24Z" transform="translate(-18.522 -40.798)"/><path class="f" d="M213.684,21.171c-.678,2.487-6.066,3.181-12.031,1.559s-10.261-4.967-9.583-7.415,6.066-3.181,12.031-1.559S214.363,18.683,213.684,21.171Z" transform="translate(-42.487 -3.026)"/><path class="f" d="M270.426,34.079c-.678,2.487-6.066,3.189-12.039,1.559s-10.222-4.959-9.575-7.446,6.066-3.181,12.031-1.559S271.1,31.6,270.426,34.079Z" transform="translate(-54.987 -5.86)"/><path class="h" d="M198.47,15.528s2.238-2.1,6.16.14a56.46,56.46,0,0,0-6.16-.14Z" transform="translate(-43.913 -3.411)"/><path class="h" d="M260.59,34.27s4.616,3.22,7.142,1.559C267.732,35.814,264.652,39.6,260.59,34.27Z" transform="translate(-57.596 -7.735)"/></g></g></svg>