<svg xmlns="http://www.w3.org/2000/svg" xmlns:xlink="http://www.w3.org/1999/xlink" width="355.214" height="199.638" viewBox="0 0 355.214 199.638"><defs><style>.a{fill:#090a0b;}.b{fill:#c1272d;}.c{fill:url(#a);}.d{fill:url(#b);}.e{fill:url(#c);}</style><linearGradient id="a" x1="0.137" y1="0.418" x2="0.522" y2="0.579" gradientUnits="objectBoundingBox"><stop offset="0" stop-color="#c1272d"/><stop offset="1" stop-color="#8f1836"/></linearGradient><linearGradient id="b" y1="0.5" x2="1" y2="0.5" gradientUnits="objectBoundingBox"><stop offset="0" stop-color="#921936"/><stop offset="1" stop-color="#8f1836"/></linearGradient><linearGradient id="c" y1="0.5" x2="1" y2="0.5" gradientUnits="objectBoundingBox"><stop offset="0.15" stop-color="#343433"/><stop offset="1"/></linearGradient></defs><path class="a" d="M307.32,173.8l.08.069h0Z" transform="translate(45.604 25.769)"/><path class="b" d="M300.589,80.029c-17.444-19.4-35.325-39.585-58.993-51.414-15.653-7.8-34.98-11.806-52.218-7.947C180.846,22.586,171,27.18,166.916,35.425c-3.353,6.764-2.618,14.16-3.055,21.452.31-5.283,2.641-10,5.409-14.47,7.212-11.679,18.145-16.3,31.73-15.3a134.064,134.064,0,0,1,37.059,8.314c16.95,6.523,34.36,17.639,47.819,29.663a204.162,204.162,0,0,1,14.711,14.941Zm27.332,51.85c-19.58,27.251-73.1,28.6-123.545,2.056S124.655,62.562,135.921,31a37.068,37.068,0,0,1,2.228-5.1c16.594-31.65,73.245-34.728,126.462-6.741s82.811,76.346,66.148,108.041a38.179,38.179,0,0,1-2.894,4.674Z" transform="translate(19.812 -0.019)"/><path class="c" d="M121.535,67.7a40.378,40.378,0,0,1,4.5-16.238l2.618-5.581,8.889-18.96.172.069c-11.266,31.581,18,76.437,68.4,102.954s103.964,25.2,123.545-2.056v.3l-8.154,18.076h-.1l-.08.1a.184.184,0,0,1,0,.1,37.476,37.476,0,0,1-2.641,6.316,41.675,41.675,0,0,1-15.033,15.94,59.406,59.406,0,0,1-15.044,6.649h0a81.062,81.062,0,0,1-14.424,2.745c-23.806,2.515-53.343-3.583-81.9-18.593a179.072,179.072,0,0,1-20.591-12.632,7.376,7.376,0,0,1-.609-.436l-1.723-1.229a159.291,159.291,0,0,1-17.593-15C131.445,110.156,120.157,87.326,121.535,67.7Z" transform="translate(18.017 3.973)"/><path class="d" d="M296.661,77.553a204.154,204.154,0,0,0-14.654-14.929c-13.459-12.024-30.869-23.14-47.819-29.663a134.064,134.064,0,0,0-37.059-8.314c-13.586-1-24.518,3.617-31.73,15.3-2.768,4.467-5.1,9.187-5.409,14.47.436-7.292-.3-14.688,3.055-21.452,4.088-8.245,13.93-12.839,22.463-14.757,17.226-3.882,36.553.126,52.16,7.924C261.279,37.968,279.159,58.157,296.661,77.553Z" transform="translate(23.741 2.456)"/><path class="a" d="M187.18,132.009a.964.964,0,0,0-.115.138c-.31.344-.643.678-.976,1.022-15.1,15.928-39.987,29.939-69.834,37.713-32.086,8.291-62.7,7.465-83.959-.6a58.43,58.43,0,0,1-16.078-8.923A33.533,33.533,0,0,1,4.126,143.585c-.138-.54-.31-1.148-.459-1.654h.1l-1.918-16.9L.83,115.84A29.95,29.95,0,0,0,4.9,124.958c7.338,11.117,22.2,18.753,41.262,22.072s42.571,2.3,66.8-3.985a180.171,180.171,0,0,0,37.507-14.194,145.124,145.124,0,0,0,14.32-8.441c1.654-1.148,3.261-2.3,4.8-3.445a159.289,159.289,0,0,0,17.593,15.044Z" transform="translate(0.122 17.168)"/><path class="a" d="M155.973,124.934c-1.539,1.148-3.147,2.3-4.8,3.445-19.8-1.148-39.735-7.12-52.826-22.968-9.7-11.737-6.661-25.265,5.26-33.533a51.675,51.675,0,0,1,7.155-4.2,67.008,67.008,0,0,1,15-5.225h0C124.438,82.053,135.727,104.883,155.973,124.934Z" transform="translate(13.736 9.245)"/><path class="e" d="M164.91,131.271a145.121,145.121,0,0,1-14.321,8.441,180.172,180.172,0,0,1-37.507,14.194c-24.231,6.293-47.624,7.327-66.8,4S12.357,146.959,5.018,135.8a29.951,29.951,0,0,1-4.065-9.13c-7.533-29.135,30.478-64.161,84.878-78.24,21.82-5.639,42.881-7.063,60.865-4.869l-2.618,5.581a40.378,40.378,0,0,0-4.5,16.238h0A67.009,67.009,0,0,0,124.5,70.625a51.678,51.678,0,0,0-7.155,4.192c-11.92,8.268-14.929,21.82-5.26,33.533C125.175,124.151,145.111,130.112,164.91,131.271ZM124.877,63.355c-3.078-1.332-7.511-1.435-10.795-1.964-2.435-.4-4.869-.746-7.327-1.011-1.1-.092-2.251-.253-3.4-.345a83.891,83.891,0,0,0-20.5.666A96.592,96.592,0,0,0,34.119,84.222c-4.536,4.215-9.658,9.692-11.851,15.664-6.178,16.87,2.848,29.365,8.59,35.2a33.67,33.67,0,0,0,4.134,3.64,38.842,38.842,0,0,1-2.366-3.663c-4-6.971-6.89-16.594-6.741-23.829.345-14.183,13-25.965,24.2-32.959,13.092-8.165,28.71-11.863,43.777-14.378,3.755-.62,7.671-1.148,11.633-1.5a61.325,61.325,0,0,1,19.385.965Z" transform="translate(-0.001 6.296)"/><path class="a" d="M111.473,59.225c3.284.528,7.717.632,10.795,1.964a61.324,61.324,0,0,0-19.385-.965c-3.962.322-7.878.884-11.633,1.5C76.183,64.2,60.553,67.9,47.473,76.06c-11.2,6.994-23.852,18.765-24.2,32.959-.2,7.235,2.745,16.858,6.741,23.829a38.836,38.836,0,0,0,2.366,3.663,33.672,33.672,0,0,1-4.134-3.64c-5.742-5.834-14.768-18.374-8.59-35.2C21.852,91.7,26.974,86.189,31.51,82.009A96.592,96.592,0,0,1,80.282,58.49a83.89,83.89,0,0,1,20.464-.666c1.148.092,2.3.207,3.365.345C106.6,58.432,109.038,58.777,111.473,59.225Z" transform="translate(2.608 8.508)"/></svg>