<svg xmlns="http://www.w3.org/2000/svg" width="72.258" height="47.458" viewBox="0 0 72.258 47.458"><defs><style>.a{fill:#fff;}</style></defs><g transform="translate(0 -55.109)"><g transform="translate(0 55.109)"><path class="a" d="M72.219,87.931a67.448,67.448,0,0,0-1.98-13.05,50.087,50.087,0,0,0-4.05-10.98c-6.3-11.07-13.14-9.36-21.33-7.2a58.623,58.623,0,0,1-8.28,1.62h-.9A58.624,58.624,0,0,1,27.4,56.7c-8.19-2.07-15.03-3.87-21.33,7.29a45.882,45.882,0,0,0-4.05,10.98,67.449,67.449,0,0,0-1.98,13.05c-.18,4.59.27,7.92,1.26,10.26a6.821,6.821,0,0,0,4.32,4.05,8.8,8.8,0,0,0,5.76-.63c3.51-1.44,7.56-4.5,11.52-8.19,2.79-2.7,8.01-4.05,13.23-4.05s10.44,1.35,13.23,4.05c3.96,3.69,8.01,6.75,11.52,8.19a9.415,9.415,0,0,0,5.76.63,6.725,6.725,0,0,0,4.32-4.14C71.949,95.941,72.4,92.611,72.219,87.931Zm-4.32,9a3.569,3.569,0,0,1-2.16,2.25,6.215,6.215,0,0,1-3.69-.45c-3.15-1.26-6.84-4.05-10.44-7.47-3.42-3.42-9.45-5.13-15.48-5.13s-12.06,1.71-15.57,4.95c-3.69,3.42-7.38,6.3-10.44,7.47a5.583,5.583,0,0,1-3.69.45,3.569,3.569,0,0,1-2.16-2.25c-.72-1.71-1.08-4.5-.9-8.64a62.08,62.08,0,0,1,1.89-12.42,42.944,42.944,0,0,1,3.78-10.17c4.95-8.91,10.71-7.47,17.55-5.67a52.794,52.794,0,0,0,8.82,1.71h1.35a52.141,52.141,0,0,0,8.91-1.71c6.84-1.71,12.6-3.24,17.55,5.67A41.5,41.5,0,0,1,67,75.691a68.12,68.12,0,0,1,1.89,12.42C69.069,92.251,68.709,95.041,67.9,96.931Z" transform="translate(0 -55.109)"/></g><g transform="translate(9.309 64.081)"><g transform="translate(0 0)"><path class="a" d="M59.913,101.281a5.468,5.468,0,0,0-3.24-1.53,5.121,5.121,0,0,0-1.44-3.15l-.09-.09a5.1,5.1,0,0,0-3.69-1.53,5.314,5.314,0,0,0-3.69,1.53,5.231,5.231,0,0,0-1.53,3.24,5.361,5.361,0,0,0-3.24,1.44l-.09.09a5.1,5.1,0,0,0-1.53,3.69,5.314,5.314,0,0,0,1.53,3.69,5.018,5.018,0,0,0,3.33,1.53,4.8,4.8,0,0,0,1.53,3.24,5.1,5.1,0,0,0,3.69,1.53,5.314,5.314,0,0,0,3.69-1.53,5.468,5.468,0,0,0,1.53-3.24,4.8,4.8,0,0,0,3.24-1.53,5.1,5.1,0,0,0,1.53-3.69A5.314,5.314,0,0,0,59.913,101.281Zm-2.25,5.04a1.832,1.832,0,0,1-1.35.54h-1.26a1.709,1.709,0,0,0-1.71,1.71v1.17a1.89,1.89,0,1,1-3.78,0v-1.26a1.709,1.709,0,0,0-1.71-1.71h-1.26a1.846,1.846,0,0,1-1.35-3.15l.09-.09a2.15,2.15,0,0,1,1.26-.45h1.26a1.709,1.709,0,0,0,1.71-1.71v-1.26a1.909,1.909,0,0,1,3.24-1.35l.09.09a2.15,2.15,0,0,1,.45,1.26v1.26a1.709,1.709,0,0,0,1.71,1.71h1.26a1.909,1.909,0,0,1,1.35,3.24Z" transform="translate(-41.373 -94.981)"/></g></g><g transform="translate(48.639 64.531)"><g transform="translate(0 0)"><circle class="a" cx="3.15" cy="3.15" r="3.15"/></g></g><g transform="translate(48.639 77.311)"><g transform="translate(0 0)"><circle class="a" cx="3.15" cy="3.15" r="3.15"/></g></g><g transform="translate(42.249 70.921)"><g transform="translate(0 0)"><circle class="a" cx="3.15" cy="3.15" r="3.15"/></g></g><g transform="translate(55.029 70.921)"><g transform="translate(0 0)"><circle class="a" cx="3.15" cy="3.15" r="3.15"/></g></g></g></svg>