<svg xmlns="http://www.w3.org/2000/svg" width="40.227" height="35.858" viewBox="0 0 40.227 35.858"><defs><style>.a{fill:#737773;}</style></defs><g transform="translate(0)"><path class="a" d="M39.8,41.96,20.73,28A1.045,1.045,0,0,0,19.5,28L.427,41.96a1.045,1.045,0,0,0,1.235,1.687l18.45-13.509,18.45,13.509A1.045,1.045,0,0,0,39.8,41.96Z" transform="translate(0.001 -27.798)"/></g><g transform="translate(4.435 16.086)"><path class="a" d="M86.763,232.543a1.045,1.045,0,0,0-1.045,1.045v16.636H77.356v-9.081a5.226,5.226,0,1,0-10.453,0v9.081H58.542V233.588a1.045,1.045,0,0,0-2.09,0V251.27a1.045,1.045,0,0,0,1.045,1.045H67.949a1.045,1.045,0,0,0,1.041-.964.8.8,0,0,0,0-.081V241.143a3.136,3.136,0,0,1,6.272,0V251.27a.767.767,0,0,0,0,.08,1.045,1.045,0,0,0,1.041.965H86.763a1.045,1.045,0,0,0,1.045-1.045V233.588A1.045,1.045,0,0,0,86.763,232.543Z" transform="translate(-56.452 -232.543)"/></g></svg>