<svg xmlns="http://www.w3.org/2000/svg" width="46.449" height="30.508" viewBox="0 0 46.449 30.508"><defs><style>.a{fill:#eeeeee;}</style></defs><g transform="translate(0.001 -55.109)"><g transform="translate(0 55.109)"><path class="a" d="M46.425,76.208a43.357,43.357,0,0,0-1.273-8.389,32.2,32.2,0,0,0-2.6-7.058c-4.05-7.116-8.447-6.017-13.712-4.628a37.684,37.684,0,0,1-5.323,1.041h-.579a37.684,37.684,0,0,1-5.323-1.041C12.348,54.8,7.951,53.645,3.9,60.819a29.494,29.494,0,0,0-2.6,7.058A43.358,43.358,0,0,0,.025,76.266a15.764,15.764,0,0,0,.81,6.6,4.385,4.385,0,0,0,2.777,2.6,5.657,5.657,0,0,0,3.7-.4,27.193,27.193,0,0,0,7.405-5.265c1.794-1.736,5.149-2.6,8.5-2.6s6.711.868,8.5,2.6a27.193,27.193,0,0,0,7.405,5.265,6.052,6.052,0,0,0,3.7.4A4.323,4.323,0,0,0,45.615,82.8,15.469,15.469,0,0,0,46.425,76.208Zm-2.777,5.785a2.294,2.294,0,0,1-1.389,1.446,4,4,0,0,1-2.372-.289,23.6,23.6,0,0,1-6.711-4.8c-2.2-2.2-6.075-3.3-9.951-3.3s-7.753,1.1-10.009,3.182a24.04,24.04,0,0,1-6.711,4.8,3.589,3.589,0,0,1-2.372.289,2.294,2.294,0,0,1-1.389-1.446,13.68,13.68,0,0,1-.579-5.554A39.907,39.907,0,0,1,3.381,68.34,27.606,27.606,0,0,1,5.811,61.8C8.993,56.074,12.7,57,17.093,58.157a33.937,33.937,0,0,0,5.67,1.1h.868a33.517,33.517,0,0,0,5.728-1.1c4.4-1.1,8.1-2.083,11.282,3.645a26.677,26.677,0,0,1,2.43,6.538,43.79,43.79,0,0,1,1.215,7.984A13.387,13.387,0,0,1,43.648,81.993Z" transform="translate(0 -55.109)"/></g><g transform="translate(5.984 60.876)"><g transform="translate(0 0)"><path class="a" d="M53.291,99.031a3.515,3.515,0,0,0-2.083-.984,3.292,3.292,0,0,0-.926-2.025l-.058-.058a3.277,3.277,0,0,0-2.372-.984,3.416,3.416,0,0,0-2.372.984,3.363,3.363,0,0,0-.984,2.083,3.447,3.447,0,0,0-2.083.926l-.058.058a3.277,3.277,0,0,0-.984,2.372,3.416,3.416,0,0,0,.984,2.372,3.226,3.226,0,0,0,2.141.984,3.086,3.086,0,0,0,.984,2.083,3.277,3.277,0,0,0,2.372.984,3.416,3.416,0,0,0,2.372-.984,3.515,3.515,0,0,0,.984-2.083,3.086,3.086,0,0,0,2.083-.984,3.277,3.277,0,0,0,.984-2.372A3.416,3.416,0,0,0,53.291,99.031Zm-1.446,3.24a1.177,1.177,0,0,1-.868.347h-.81a1.1,1.1,0,0,0-1.1,1.1v.752a1.215,1.215,0,1,1-2.43,0v-.81a1.1,1.1,0,0,0-1.1-1.1h-.81a1.186,1.186,0,0,1-.868-2.025l.058-.058a1.382,1.382,0,0,1,.81-.289h.81a1.1,1.1,0,0,0,1.1-1.1v-.81a1.227,1.227,0,0,1,2.083-.868l.058.058a1.382,1.382,0,0,1,.289.81v.81a1.1,1.1,0,0,0,1.1,1.1h.81a1.227,1.227,0,0,1,.868,2.083Z" transform="translate(-41.373 -94.981)"/></g></g><g transform="translate(31.267 61.166)"><g transform="translate(0 0)"><circle class="a" cx="2.025" cy="2.025" r="2.025"/></g></g><g transform="translate(31.267 69.381)"><g transform="translate(0 0)"><circle class="a" cx="2.025" cy="2.025" r="2.025"/></g></g><g transform="translate(27.159 65.273)"><g transform="translate(0 0)"><circle class="a" cx="2.025" cy="2.025" r="2.025"/></g></g><g transform="translate(35.375 65.273)"><g transform="translate(0 0)"><circle class="a" cx="2.025" cy="2.025" r="2.025"/></g></g></g></svg>