<svg xmlns="http://www.w3.org/2000/svg" width="558.494" height="282.152" viewBox="0 0 558.494 282.152"><defs><style>.a{fill:#d7a07e;}.b{fill:#fff;}.c{fill:#bb6f61;}.d{fill:#703d35;}.e{fill:#f0b696;}.f{fill:#884b44;}</style></defs><g transform="translate(-203 -1166.28)"><path class="a" d="M589.448.26c.543,1,1.116,2.016,1.682,2.976C587.99,5.3,490.888,51.486,445.5,72.534Q298.752,140.6,152.017,208.69c-10.729,4.992-13.921,4.152-25.3-8.266Z" transform="translate(170.364 1166.02)"/><path d="M164.213,14.363a55.013,55.013,0,1,1-15.8,76.173,55.013,55.013,0,0,1,15.8-76.173Zm59.8,61.754a21.241,21.241,0,1,1,0-.015Z" transform="translate(167.118 1164.721)"/><path class="b" d="M245.89,41.024a29.471,29.471,0,1,1-40.765-8.385,29.471,29.471,0,0,1,40.765,8.385Zm-19.218,9.419a7.223,7.223,0,0,0-.513-7.388,6.942,6.942,0,0,0-6.86-3.125,13.3,13.3,0,0,0-11.041,8.184A7.537,7.537,0,0,0,213.883,58.6a22.32,22.32,0,0,0,2.589.193c-.2.35-.342.625-.491.878-2.15,3.884-1.309,8.184,2.18,10.669a8.274,8.274,0,0,0,7.5,1.071c4.68-1.414,8.467-4,10.416-8.646a8.184,8.184,0,0,0-6.912-11.48,28.808,28.808,0,0,0-2.976.089A4.883,4.883,0,0,0,226.672,50.443Z" transform="translate(153.698 1158.968)"/><path d="M231.611,47.205a7.223,7.223,0,0,1,.513,7.388c-.112.29-.253.565-.424.915a28.805,28.805,0,0,1,2.976-.089,8.184,8.184,0,0,1,6.912,11.48c-1.979,4.643-5.766,7.232-10.416,8.646a8.274,8.274,0,0,1-7.582-1.034c-3.489-2.492-4.33-6.785-2.18-10.669.149-.253.29-.528.491-.878a22.318,22.318,0,0,1-2.589-.193,7.537,7.537,0,0,1-5.625-10.483c2.1-4.806,5.952-7.44,11.041-8.184A6.942,6.942,0,0,1,231.611,47.205Zm3.43,16.547a5.418,5.418,0,0,0-6.979-1.89,1,1,0,0,0-.193.171,4.7,4.7,0,0,0-.193,6.138,4.293,4.293,0,0,0,5.818.826,3.943,3.943,0,0,0,1.525-5.245Zm-9-7.172a4.166,4.166,0,0,0,0-5.29,3.709,3.709,0,1,0-3.236,5.826,18.811,18.811,0,0,0,2.842-.327.744.744,0,0,0,.394-.208Z" transform="translate(148.268 1154.817)"/><path class="b" d="M232.706,67.795a5.441,5.441,0,0,1,6.979,1.89,3.943,3.943,0,0,1-1.548,5.208,4.293,4.293,0,0,1-5.818-.826,4.7,4.7,0,0,1,.193-6.138,1,1,0,0,1,.193-.134Z" transform="translate(143.601 1148.885)"/><path class="b" d="M228.257,53.312a4.166,4.166,0,0,1,0,5.29.744.744,0,0,1-.365.208,18.809,18.809,0,0,1-2.842.327,3.62,3.62,0,1,1,3.207-5.826Z" transform="translate(146.079 1152.796)"/><path class="c" d="M254.637,142.47l-1.354,44.723-14.843,3.973,1.957-41.174Z" transform="translate(141.952 1129.81)"/><path class="c" d="M190.693,220.134c0,2.388.1,4.948-.074,7.485q-3.326,40.08-6.733,80.116c-.937,11.227-5.952,13.735-15.1,7.4Q90.592,261.04,12.47,206.756c-8.117-5.677-7.649-11.644,1.146-15.8,33.622-15.952,67.46-31.494,100.83-47.93,9.955-4.9,15.066,2.641,23.861,5.424C101.4,165.887,65.98,182.635,28.935,200.1c47.454,32.915,93.479,64.849,140.828,97.667,1.7-20.371,3.906-39.247,4.62-58.167C174.808,228.415,178.454,221.517,190.693,220.134Z" transform="translate(201.091 1129.889)"/><path class="d" d="M77.171,299.461c-.164,1.049-.32,2.091-.491,3.125q-31.45,14.4-62.892,28.749c-5.908,2.708-9.724-.06-12.165-5.283S-.244,316,5.633,313.4c17.358-7.656,34.478-16.16,52.424-21.956C63.057,289.863,70.75,296.567,77.171,299.461Z" transform="translate(202.734 1091.543)"/><path class="d" d="M130.8,144.61,20.112,195.493s-8.184-.045-1.488,5.625l153.342,106.6c2.046.811,3.72,2.18,4.747-.253.744-1.719.58-4.516.811-6.391.193-1.592.387-3.192.565-4.784.268-2.4.513-4.784.8-7.18q1.2-10.014,2.4-20.036,1.257-10.595,2.537-21.19c.677-5.729,1.376-11.458,2.053-17.187.32-2.656.647-5.312.952-7.976a1.554,1.554,0,0,0,0-.171s-6.413-.379-9.672,12.187l-5.015,63.822L31.347,200.917l108.828-51.7Z" transform="translate(198.709 1129.069)"/><path class="d" d="M240.394,151.075l8.824-4.375-1.562,43.153-9.226,2.4Z" transform="translate(141.955 1128.727)"/><path class="e" d="M169.03,187.887l4.427,4.873L592.838,6.309l-.67-1.719Z" transform="translate(159.72 1165.105)"/><path class="d" d="M224.785,212.41s.67,6.086,1.488,7.611c.327.618,5.841,5.833,5.841,5.833l-85.347,39.6s-6.5,1.778-9.873-1.1c-.937-.8-9.263-6.778-10.134-9.605Z" transform="translate(170.354 1111.714)"/><path class="f" d="M12.73,329.811l3.192,3.475,58.733-26.093-3.318-2.2Z" transform="translate(199.73 1088.208)"/><path class="f" d="M140.92,265.776l2.872,2.954,86.269-40.408-3.519-1.592Z" transform="translate(166.915 1108.241)"/></g></svg>