<svg xmlns="http://www.w3.org/2000/svg" xmlns:xlink="http://www.w3.org/1999/xlink" width="335.279" height="224.987" viewBox="0 0 335.279 224.987"><defs><style>.a{fill:url(#a);}.b{fill:url(#b);}.c{fill:url(#c);}.d,.s{fill:#a6dce8;}.e{fill:url(#d);}.f{fill:url(#e);}.g{fill:url(#f);}.h{fill:url(#g);}.i{fill:url(#h);}.j{fill:url(#i);}.k{fill:url(#j);}.l{fill:url(#k);}.m{fill:url(#l);}.n{fill:url(#m);}.o{fill:url(#n);}.p{fill:url(#o);}.q{fill:url(#p);}.r{fill:url(#q);}.s{opacity:0.2;}.t{opacity:0.5;fill:url(#r);}.u{fill:url(#s);}.v{fill:url(#t);}.w{fill:url(#u);}.x{fill:url(#v);}.y{fill:url(#w);}.z{fill:url(#x);}.aa{fill:#fbdddf;}.ab{fill:url(#y);}.ac{fill:url(#z);}.ad{fill:url(#aa);}.ae{fill:url(#ab);}.af{fill:url(#ac);}.ag{fill:none;stroke:#231f20;stroke-linecap:round;stroke-linejoin:round;stroke-width:0.5px;}.ah{fill:url(#ad);}.ai{fill:url(#ae);}.aj{fill:url(#af);}.ak{fill:url(#ag);}.al{fill:url(#ah);}.am{fill:#ef5152;opacity:0.7;}.an{fill:#e86667;opacity:0.9;}</style><linearGradient id="a" y1="0.5" x2="1" y2="0.5" gradientUnits="objectBoundingBox"><stop offset="0.29" stop-color="#d0d2d3"/><stop offset="0.54" stop-color="#e6e7e8"/></linearGradient><linearGradient id="b" y1="0.5" x2="1" y2="0.5" gradientUnits="objectBoundingBox"><stop offset="0.29" stop-color="#d0d2d3"/><stop offset="0.54" stop-color="#808184"/></linearGradient><linearGradient id="c" x1="-0.001" y1="0.5" x2="1" y2="0.5" gradientUnits="objectBoundingBox"><stop offset="0" stop-color="#8fc1db"/><stop offset="1" stop-color="#193869"/></linearGradient><linearGradient id="d" x1="0.239" y1="-0.228" x2="0.479" y2="0.386" gradientUnits="objectBoundingBox"><stop offset="0" stop-color="#00539f"/><stop offset="1" stop-color="#193869"/></linearGradient><linearGradient id="e" y1="0.497" x2="1" y2="0.497" gradientUnits="objectBoundingBox"><stop offset="0.12" stop-color="#a6dce8"/><stop offset="0.36" stop-color="#8fc1db"/><stop offset="0.6" stop-color="#3580bd"/><stop offset="0.72" stop-color="#3a73b2"/><stop offset="0.87" stop-color="#00539f"/><stop offset="1" stop-color="#193869"/></linearGradient><linearGradient id="f" x1="0.228" y1="-0.292" x2="0.477" y2="0.458" gradientUnits="objectBoundingBox"><stop offset="0" stop-color="#a6dce8"/><stop offset="0.49" stop-color="#3a73b2"/><stop offset="1" stop-color="#3580bd"/></linearGradient><linearGradient id="g" x1="0.003" y1="0.5" x2="1" y2="0.5" xlink:href="#c"/><linearGradient id="h" x1="0" y1="0.5" x2="1" y2="0.5" xlink:href="#e"/><linearGradient id="i" x1="-0.001" y1="0.5" x2="1" y2="0.5" xlink:href="#c"/><linearGradient id="j" x1="-0.001" y1="0.5" x2="1" y2="0.5" xlink:href="#e"/><linearGradient id="k" x1="0" y1="0.5" x2="1.001" y2="0.5" xlink:href="#c"/><linearGradient id="l" x1="0" y1="0.501" x2="1" y2="0.501" xlink:href="#e"/><linearGradient id="m" x1="0" y1="0.5" x2="1" y2="0.5" xlink:href="#c"/><linearGradient id="n" x1="0" y1="0.5" x2="1" y2="0.5" xlink:href="#e"/><linearGradient id="o" x1="0.001" y1="0.5" x2="1" y2="0.5" xlink:href="#c"/><linearGradient id="p" x1="0" y1="0.5" x2="0.999" y2="0.5" xlink:href="#e"/><linearGradient id="q" x1="0" y1="0.5" x2="1" y2="0.5" xlink:href="#c"/><linearGradient id="r" x1="7.237" y1="-2.084" x2="8.277" y2="-2.084" xlink:href="#e"/><linearGradient id="s" y1="0.5" x2="1" y2="0.5" gradientUnits="objectBoundingBox"><stop offset="0.12" stop-color="#f8b5b7"/><stop offset="0.27" stop-color="#e86667"/><stop offset="0.51" stop-color="#ef5152"/><stop offset="0.72" stop-color="#ec1e24"/><stop offset="1" stop-color="#611"/></linearGradient><linearGradient id="t" y1="0.5" x2="1" y2="0.5" gradientUnits="objectBoundingBox"><stop offset="0" stop-color="#ec1e24"/><stop offset="1" stop-color="#611"/></linearGradient><linearGradient id="u" x1="0" y1="0.5" x2="1" y2="0.5" xlink:href="#s"/><linearGradient id="v" x1="-0.003" y1="0.501" x2="1" y2="0.501" xlink:href="#s"/><linearGradient id="w" x1="0" y1="0.5" x2="1" y2="0.5" xlink:href="#s"/><linearGradient id="x" x1="0" y1="0.499" x2="1" y2="0.499" xlink:href="#s"/><linearGradient id="y" x1="0" y1="0.5" x2="1" y2="0.5" xlink:href="#s"/><linearGradient id="z" x1="0" y1="0.5" x2="1" y2="0.5" xlink:href="#s"/><linearGradient id="aa" x1="0" y1="0.502" x2="1.008" y2="0.502" xlink:href="#s"/><linearGradient id="ab" x1="0" x2="1" xlink:href="#t"/><linearGradient id="ac" x1="0" y1="0.501" x2="1" y2="0.501" xlink:href="#s"/><linearGradient id="ad" x1="0" y1="0.498" x2="1" y2="0.498" xlink:href="#t"/><linearGradient id="ae" x1="0" x2="1" xlink:href="#t"/><linearGradient id="af" x1="0" x2="1" xlink:href="#t"/><linearGradient id="ag" x1="0.001" x2="1.001" xlink:href="#t"/><linearGradient id="ah" x1="0" x2="1" xlink:href="#t"/></defs><g transform="translate(-22.884 61.666) rotate(-11)"><g transform="translate(0 0)"><g transform="translate(182.275 0)"><g transform="translate(0 0)"><path d="M22.454,18.341a69.191,69.191,0,0,1-.444,7.844h0L8.55,32.315,0,18.038,5.7,0H20.065a70.266,70.266,0,0,1,2.39,18.341Z" transform="translate(118.927 52.36)"/><path class="a" d="M140.907,78.566h0A70.66,70.66,0,0,1,103.6,133.275V121.448L87.085,120.2,71.87,135.412l8.258,5.364h0A70.66,70.66,0,0,1,15.981,115.57h0l9.619-1.452L19.893,92.268,5.7,84.7,3.186,91.754h0a70.892,70.892,0,0,1,6.745-57.2h0L14.267,42.8l19.964-6.655,1.9-17.141-7.058-5.455A70.348,70.348,0,0,1,70.711,0a68.754,68.754,0,0,1,8.318.494L73.252,8.56,87.519,24.693,105.6,21.88l-.655-13.047h0a70.731,70.731,0,0,1,34.04,43.5h-14.4L118.927,70.4l8.56,14.3Zm-28.7-7.865a43.114,43.114,0,1,0-43.121,43.124A43.112,43.112,0,0,0,112.212,70.7Z"/><path d="M31.69,8.338l.655,13.047L14.267,24.2,0,8.066,5.777,0A69.834,69.834,0,0,1,31.69,8.328Z" transform="translate(73.221 0.535)"/><path d="M31.741,13.067h0A70.157,70.157,0,0,1,8.258,20.579h0L0,15.215,15.215,0,31.731,1.25Z" transform="translate(71.921 120.147)"/><path class="b" d="M50.6,72.627A30.49,30.49,0,0,0,73.06,48.821a31.322,31.322,0,0,0,.534-5.717,30.4,30.4,0,0,0-23-29.523,30.783,30.783,0,0,0-7.451-.918,30.43,30.43,0,0,0-30.47,30.42,29.633,29.633,0,0,0,.544,5.717A30.47,30.47,0,0,0,35.34,72.526,30.793,30.793,0,0,0,43.1,73.534a30.248,30.248,0,0,0,7.492-.907ZM43.144.03A30.787,30.787,0,1,1,43.1,0Z" transform="translate(25.983 27.617)"/><path d="M60.88,30.41a31.313,31.313,0,0,1-.534,5.717H37.922V59.952a30.249,30.249,0,0,1-7.451.907,30.793,30.793,0,0,1-7.764-1.008v-23.7H.544A29.634,29.634,0,0,1,0,30.43a30.25,30.25,0,0,1,1.22-8.54H22.666V1.008h0A30.349,30.349,0,0,1,30.43,0a30.783,30.783,0,0,1,7.451.918V21.89H59.64A30.393,30.393,0,0,1,60.88,30.41Z" transform="translate(38.657 40.291)"/><path d="M26.205,5.414l-1.9,17.141L4.336,29.25,0,21H0A70.681,70.681,0,0,1,19.157,0Z" transform="translate(9.921 13.632)"/><path d="M16.758,7.562l5.707,21.849-9.589,1.452h0A70.711,70.711,0,0,1,0,7.058H0L2.511,0Z" transform="translate(3.206 84.736)"/></g></g><path class="c" d="M4.492,5.971c3.579,13.975,10.254,25.792,7.29,26.306s-6.524-.706-8.752-1.654A129.778,129.778,0,0,1,.086,9.914a31.194,31.194,0,0,1,0-4.638C.4,1.121,1.75-.058,3.242,0,3.565,2.019,3.988,4.035,4.492,5.971Z" transform="translate(311.019 180.207)"/><path class="d" d="M171.462,39.767c1.785,1.785,2.974,3.5,2.692,4.739a1.482,1.482,0,0,0-.071.343c-.161.706-.282,1.422-.393,2.138-10.819,9.821-39.414,14.529-109.752-4.356,0,0-70.832-22.374-63.391-42.63C-3.7,18.683,54.783,34.826,67.024,38.617c29.674,9.165,82.125,18.9,104.408,1.412Z" transform="translate(140.148 119.54)"/><path class="e" d="M182.308,60.7c-1.492-.06-2.843,1.119-3.156,5.273A9.881,9.881,0,0,0,171.166,69c-.262-.7-.484-1.311-.766-1.885-4.285-8.772-7.986-.544-7.986-.544l-.484,3.025c-10.738-5.425-19.359-1.815-23.1.434l.131-1.613c-5.041-9.075-12.493-1.311-12.493-1.311l-.131.645c-15.265-14.59-28.373-8.641-32.709-5.929-.544-4.033-2.279-10.214-7.673-6.554A13.209,13.209,0,0,0,83.173,57.8C77.265,47.006,62.221,45.625,52.35,46c.544-5.656-5.243-4.386-5.243-4.386-1.25-.313-2.652.423-4.124,1.8C41.1,36.48,30.077,30.954,30.077,30.954c-1.008-2.571-7.824-2.914-13.45-2.692C18.734,20.055,9.851,22.7,9.851,22.7l-.635.686c-.6-4.89-4.033-8.661-7.955-11.414C4,8.943,2.329,7.633,0,7.058,3.025,4.87,5.929,2.521,8.772,0,1.331,20.256,72.163,42.63,72.163,42.63,142.5,61.515,171.1,56.807,181.914,46.986a30.7,30.7,0,0,0-.3,3.5,46.922,46.922,0,0,0,.7,10.214Z" transform="translate(131.924 119.51)"/><path class="f" d="M10.96,25.3a23.379,23.379,0,0,1-2.148-1.008L2.874,25.3C2.622,18.134,1.916,8.707,0,3.06H0A9.881,9.881,0,0,1,7.986.035a31.2,31.2,0,0,0,0,4.638A129.777,129.777,0,0,0,10.96,25.3Z" transform="translate(303.09 185.578)"/><path class="g" d="M171.1,46.013v.262C148.821,63.758,96.37,54.028,66.7,44.863,54.455,41.072-4.025,24.929.22,6.246a.121.121,0,0,0,.091-.06,2.287,2.287,0,0,1,.282-.212c1.119-.746,4.245-2.682,4.941-3.116h.081C11.664.015,18.671-.056,25.639.015,40.813.176,55.887,2.7,70.648,6.064,87.678,9.967,105,14.02,121.678,19.3c13.6,4.305,26.77,9.73,38.365,18.149C161.636,38.6,167.565,42.474,171.1,46.013Z" transform="translate(140.506 113.294)"/><path class="h" d="M15.709,28.264h-.454c0,5.878-4.033,4.8-4.033,4.8C4.225,35.453,1.139,31.269,0,29.03l3.549-22.5L4.033,3.5s3.7-8.228,7.986.544c.282.575.5,1.19.766,1.885h0C14.751,11.617,15.457,21.045,15.709,28.264Z" transform="translate(290.254 182.617)"/><path class="i" d="M24.955,2.841l-3.549,22.5a11.281,11.281,0,0,1-.5-1.281C18.5,22.18.928,22.977.928,22.977L0,24.086,1.855,3.275C5.6,1.026,14.217-2.583,24.955,2.841Z" transform="translate(268.899 186.311)"/><path class="j" d="M17.524,4.386,17.393,6,15.538,26.81l-1.7,2.087C7.7,35.5,1.381,28.353,0,26.618L4.92,3.72l.131-.645S12.472-4.649,17.524,4.386Z" transform="translate(253.361 183.587)"/><path class="k" d="M32.789,9.489l-4.92,22.9-.262-.333C25.469,21.921,9.78,21.669,9.78,21.669,6.866,19.33,2.309,21.377,0,22.678A94.709,94.709,0,0,0,.222,4.639,7.085,7.085,0,0,0,.1,3.571C4.416.8,17.524-5.151,32.789,9.489Z" transform="translate(225.472 177.818)"/><path class="l" d="M19.994,8.734a94.709,94.709,0,0,1-.222,18.038,15.124,15.124,0,0,0-1.4.867c-.544,6.13-10.385,2.138-10.385,2.138C.252,28.768,0,22.214,0,19.815c.857-1.644,1.714-3.257,2.622-4.89,1.885-3.458,3.952-8.066,6.8-11.273A13.208,13.208,0,0,1,12.2,1.111c5.394-3.66,7.129,2.561,7.673,6.554C19.934,8.048,19.964,8.4,19.994,8.734Z" transform="translate(205.68 173.663)"/><path class="m" d="M37.76,11.914c-2.843,3.247-4.91,7.814-6.8,11.273-.907,1.633-1.765,3.247-2.622,4.89v-.423c0-1.855-12.523-6.645-12.523-6.645C6.745,15.675,2.49,22.017,2.49,22.017A3.539,3.539,0,0,1,0,23.892C1.593,18.7,4.729,8.3,6.493,2.295A12.1,12.1,0,0,0,6.937.036C16.808-.266,31.852,1.115,37.76,11.914Z" transform="translate(177.337 165.401)"/><path class="n" d="M15.81.122s5.788-1.27,5.243,4.386a12.1,12.1,0,0,1-.444,2.259c-1.764,6.05-4.9,16.4-6.493,21.6C9.357,29.372,1.25,22.4,0,21.306,2.228,16.345,7.219,6.091,11.686,1.917,13.158.546,14.56-.191,15.81.122Z" transform="translate(163.221 160.98)"/><path class="o" d="M34.282,15.211C29.815,19.385,24.824,29.639,22.6,34.6l-.161-.171C24.32,22.7,4.638,18.427,0,17.56A124.938,124.938,0,0,0,7.542,1.428,8.643,8.643,0,0,0,7.925.056c5.626-.222,12.4.121,13.45,2.692C21.376,2.748,32.4,8.274,34.282,15.211Z" transform="translate(140.625 147.696)"/><path class="p" d="M15.739.405s8.883-2.642,6.776,5.566a8.64,8.64,0,0,1-.383,1.371A124.934,124.934,0,0,1,14.59,23.475l-1.008-.151-2.39,4.245C4.82,29.968,0,18.282,0,18.282a4.69,4.69,0,0,0,0-.635v-.081L15.124,1.121h0Z" transform="translate(126.035 141.781)"/><path class="d" d="M0,3.116A49.677,49.677,0,0,1,4.941,0C4.245.434,1.1,2.369,0,3.116Z" transform="translate(141.069 116.153)"/><path class="q" d="M28.948,11.414h0L13.884,27.889C13.884,20.831,2.662,16.364,0,14.882c4.789-2.9,13.41-8.338,19.44-13.44A15.627,15.627,0,0,0,20.972,0C24.844,2.793,28.323,6.524,28.948,11.414Z" transform="translate(112.212 131.458)"/><path class="r" d="M28.474,0c2.329.575,4.033,1.916,1.26,4.91A15.631,15.631,0,0,1,28.2,6.352c-6.05,5.1-14.65,10.537-19.44,13.44L8.5,19.641C6.382,18.331,0,17.786,0,17.786l.252-3.741A80.855,80.855,0,0,0,17.494,6.987c2.692-1.462,5.3-3.025,7.8-4.719C26.377,1.5,27.425.756,28.474,0Z" transform="translate(103.45 126.548)"/><path class="s" d="M17.454,14.8c-2.692,3.66-8.47,4.033-12.916.736S-1.33,6.667,1.362,3s8.48-4.033,12.916-.736S20.146,11.134,17.454,14.8Z" transform="translate(210.226 136.981)"/><path class="t" d="M42.454,27.858c-3.69,6.826-15.951,7.36-27.375,1.19S-2.616,12.32,1.044,5.494,16.985-1.876,28.409,4.3,46.144,21.022,42.454,27.858Z" transform="translate(219.77 130.885)"/><path class="u" d="M14.477,9.011c5.041,4.487,7.239,5.041,7.239,5.041-.514,5.193-9.861,4.689-9.861,4.689a9.347,9.347,0,0,0-4.174,1.422L.906,10.9s-4.245-15,5.646-9.8h0a98.673,98.673,0,0,0,7.925,7.865Z" transform="translate(210.37 83.457)"/><path class="v" d="M137.409,32.376c-1.654,2.541-2.3,6.937-2.39,7.623a.512.512,0,0,0,0,.091l-1.331,16.7H133.4l-23.362,3.731v.3l-6.756-13.158-.222-1.391C97.3,33.021,92.389,47.893,91.965,49.295a.151.151,0,0,1,0,.081l-.595,15.346L68.493,67.263l-.081.252L63.6,51.463c-6.05-13.864-11.091,3.025-11.091,3.025L49.8,69.894,26.961,70.9,25.409,53.237h0c-2.218-7.683-5.243-6.806-7.683-4.275C15.548,41.541,2.238,45.04,2.238,45.04h0a2.753,2.753,0,0,0-1.008-.474A5.142,5.142,0,0,0,0,44.485c3.71-5.656,4.709-13.6,5.969-16.5H6.08a3.882,3.882,0,0,0,0,1.321A4.406,4.406,0,0,0,7.2,31.579C14.257,39.646,52.9,41.088,99.336,34.6h0l5.172-.746C157.322,25.913,198.853,11.041,197.27.585A4.1,4.1,0,0,0,197.129,0h.081c.534,1.129,1.633,4.81,2.541,7.149a6.191,6.191,0,0,0,.948,1.916h0c-9.891-5.2-5.646,9.8-5.646,9.8l6.776,9.266c-5.505,3.025-12.442,9.992-12.442,9.992-.071.464-.161.9-.262,1.3l-9.851-16.133h0c-9.306-8.954-9.347,2.571-9.145,6.11v.968l7.33,14.529c-7.32-2.017-25.328,6.776-25.328,6.776s-.091.272-.141.393l-.272-.091L145.546,35.4h0l-.081-.2a17.263,17.263,0,0,0-2.6-3.206c-1.946-1.795-3.448-1.644-4.588-.575h0A5.867,5.867,0,0,0,137.409,32.376Z" transform="translate(16.133 75.448)"/><path class="w" d="M185.71,9.378c1.563,10.446-39.968,25.318-92.762,33.273l-5.172.746H87.7C9.4,46.765-2.859,37.852.488,29.846,13.737,20.771,47.253,10.84,87.2,4.831c51.785-7.774,95.192-5.959,98.308,3.963a4.106,4.106,0,0,1,.2.585Z" transform="translate(27.744 66.695)"/><path class="x" d="M9.141,3.344l9.851,16.133c-2.2,8.782-11.686,5.455-11.686,5.455a.453.453,0,0,1-.111,0L.047,10.412s0-.151,0-.413c0-.081,0-.192,0-.292V9.444c-.2-3.539-.161-15.064,9.145-6.11Z" transform="translate(186.355 95.416)"/><path class="y" d="M18.28,21.351l.272.091a8.829,8.829,0,0,1-.464,1.089c-2.773,6.151-7.834,6.745-11.9,5.979A21.275,21.275,0,0,1,0,26.231H.292L1.613,9.514a.513.513,0,0,1,0-.091C1.7,8.738,2.349,4.382,4,1.8A5.868,5.868,0,0,1,4.789.792h0c1.139-1.069,2.642-1.22,4.588.575a17.262,17.262,0,0,1,2.6,3.206l.081.2h0Z" transform="translate(149.528 106.074)"/><path class="z" d="M18.694,20.013V23.35a14.116,14.116,0,0,1-3.569,4.174c-5.152,3.892-10.7.313-13.42-2.017A21.234,21.234,0,0,1,0,23.875L.595,8.528a.151.151,0,0,0,0-.081C1.018,7.1,5.929-7.775,11.686,5.423l.222,1.391Z" transform="translate(107.473 116.255)"/><path class="aa" d="M93.3,13.511h0C46.922,19.984,8.214,18.552,1.166,10.486A4.406,4.406,0,0,1,.057,8.248a3.882,3.882,0,0,1,0-1.321C.45,4.739,2.537,2.41,6.106,0,2.759,8.006,15.02,16.919,93.3,13.511Z" transform="translate(22.126 96.541)"/><path class="ab" d="M13.8,5.439l4.81,16.052-1.482,4.4L17,26.008c-5.6,4.124-10.083,3.106-13.108,1.321A13.269,13.269,0,0,1,0,23.87L2.682,8.524S7.764-8.395,13.8,5.439Z" transform="translate(65.932 121.472)"/><path class="ac" d="M12.725,6.083l1.553,17.665-1.149,1.331s-1.432,1.754-1.956,2.3C9.155,29.394.262,26.843.262,26.843s-.171-.2-.262-.292H0L1.291,7.616,5.072,1.858V1.788C7.481-.723,10.506-1.6,12.725,6.073Z" transform="translate(28.817 122.603)"/><path class="ad" d="M3.751,0V.071L0,5.808A24.925,24.925,0,0,1,3.751,0Z" transform="translate(30.107 124.41)"/><path class="ae" d="M23.654,4.731A24.925,24.925,0,0,0,19.9,10.538L18.613,29.454C11.706,21.266,4.689,20.621,0,21.468L8.369,8.28C9.74,3.954,9.377,1.776,8.137.839h0S21.476-2.69,23.654,4.731Z" transform="translate(10.204 119.68)"/><path class="af" d="M18.341.587c1.22.938,1.6,3.116.232,7.441L10.2,21.216a16.334,16.334,0,0,0-5.535,2.017L0,20.692A177.78,177.78,0,0,0,15.961.294,2.843,2.843,0,0,0,16.133,0h0a5.142,5.142,0,0,1,1.21.111,2.753,2.753,0,0,1,1,.474Z" transform="translate(0 119.932)"/><path class="ag" d="M0,0H0" transform="translate(12.271 120.871)"/><line class="ag" x1="0.05" y1="0.05" transform="translate(224.797 92.418)"/><path class="ag" d="M0,0A.513.513,0,0,0,0,.091" transform="translate(151.15 115.447)"/><line class="ag" x2="0.02" transform="translate(154.348 106.846)"/><path class="ag" d="M0,.968V0" transform="translate(186.401 104.86)"/><line class="ag" y2="0.02" transform="translate(161.638 110.829)"/><path class="ag" d="M.363,0H0" transform="translate(153.178 107.824)"/><path class="ah" d="M0,4.635s19.49-10.153,27.95-.4L24.471,21.775l-22.8.918Z" transform="translate(41.471 123.567)"/><path class="ai" d="M0,6.531s12.956-12.4,28.121-3.025l-.6,15.608L4.5,21.786Z" transform="translate(79.967 120.955)"/><path class="aj" d="M0,10.135S6.483-4.777,31.882,1.575L30.228,19.381,6.745,23.223Z" transform="translate(119.421 112.954)"/><path class="ak" d="M6.292,23.936a56.151,56.151,0,0,1,25.691-7.118l-7.31-15.79S8.943-4.135,0,8.681Z" transform="translate(161.607 103.62)"/><path class="al" d="M0,8.24S6.584-3.294,15.054.93l7.582,12.1S11.2,21.1,9.79,24.121Z" transform="translate(195.506 90.62)"/><path class="am" d="M66.547,8.429c0,4.658-14.892,8.429-33.273,8.429S0,13.088,0,8.429,14.882,0,33.273,0,66.547,3.781,66.547,8.429Z" transform="translate(84.06 83.525)"/><path class="an" d="M51.5,8.429c0,4.648-11.525,8.429-25.752,8.429S0,13.077,0,8.429,11.525,0,25.711,0,51.5,3.771,51.5,8.429Z" transform="translate(122.506 73.23)"/></g></g></svg>