<svg xmlns="http://www.w3.org/2000/svg" width="41.76" height="41.761" viewBox="0 0 41.76 41.761"><defs><style>.a{fill:#737773;}</style></defs><g transform="translate(-0.001)"><path class="a" d="M40.911,0H.85A.85.85,0,0,0,0,.85V40.911a.85.85,0,0,0,.85.85H34.9a.85.85,0,0,0,0-1.7H1.7V1.7H40.061V40.911a.85.85,0,0,0,1.7,0V.85A.85.85,0,0,0,40.911,0Z"/><path class="a" d="M46.073,62.421a3.258,3.258,0,1,0,3.258,3.258A3.261,3.261,0,0,0,46.073,62.421Zm0,4.816a1.558,1.558,0,1,1,1.558-1.558A1.56,1.56,0,0,1,46.073,67.237Z" transform="translate(-36.751 -53.58)"/><path class="a" d="M121.494,79.421H101.665a.85.85,0,0,0,0,1.7h19.829a.85.85,0,0,0,0-1.7Z" transform="translate(-86.536 -68.172)"/><path class="a" d="M46.073,124.421a.85.85,0,1,0,0,1.7,1.558,1.558,0,1,1-1.558,1.558.85.85,0,1,0-1.7,0,3.258,3.258,0,1,0,3.258-3.258Z" transform="translate(-36.751 -106.798)"/><path class="a" d="M121.494,141.421H101.665a.85.85,0,0,0,0,1.7h19.829a.85.85,0,0,0,0-1.7Z" transform="translate(-86.536 -121.391)"/><path class="a" d="M46.073,186.421a3.258,3.258,0,1,0,3.258,3.258A3.261,3.261,0,0,0,46.073,186.421Zm0,4.816a1.558,1.558,0,1,1,1.558-1.558A1.56,1.56,0,0,1,46.073,191.237Z" transform="translate(-36.751 -160.017)"/><path class="a" d="M121.494,203.421H101.665a.85.85,0,1,0,0,1.7h19.829a.85.85,0,1,0,0-1.7Z" transform="translate(-86.536 -174.609)"/></g></svg>