<svg xmlns="http://www.w3.org/2000/svg" width="80.125" height="74.935" viewBox="0 0 80.125 74.935"><defs><style>.a{fill:#e9dcdc;}</style></defs><g transform="translate(0 -18.419)"><g transform="translate(0 18.419)"><path class="a" d="M2.641,62.884H27.628V65.2H21.549v0c.625,1.141,3.143,2.165,4.7,2.585H39.138a9.578,9.578,0,0,1,1.074-1.293A8.51,8.51,0,0,1,41.838,65.2a4.492,4.492,0,0,1,2.24-.735,2.749,2.749,0,0,1,.764.106,2.149,2.149,0,0,0,.592.073A11.863,11.863,0,0,0,50.132,63l.027-.015.027-.014c.051-.026.111-.06.165-.089A15.325,15.325,0,0,0,52.5,61.506a5.184,5.184,0,0,0,1.86-2.146c.021-.075.053-.146.082-.218H6.2a2.3,2.3,0,0,1-2.39-2.2V24.358a2.3,2.3,0,0,1,2.39-2.2H73.924a2.3,2.3,0,0,1,2.39,2.2V56.946a2.3,2.3,0,0,1-2.39,2.2h-7.58a35.214,35.214,0,0,1,3.718,3.742h7.421a2.642,2.642,0,0,0,2.642-2.641V21.06a2.642,2.642,0,0,0-2.642-2.641H2.641A2.642,2.642,0,0,0,0,21.06V60.242A2.642,2.642,0,0,0,2.641,62.884Z" transform="translate(0 -18.419)"/><path class="a" d="M280.295,322.759c1.5,2.233,2.689,3.067,3.652,3.067,1.509,0,2.47-2.048,3.246-3.978,1.271-3.162,1.122-5.232,7.467-8.707,3.318-1.817,5.356-2.346,7.024-2.346a22.722,22.722,0,0,1,4.333.741,15.541,15.541,0,0,0,2.746.329c2.242,0,3.727-1.067,1.734-5.652a27.614,27.614,0,0,0-4.775-7.238,33.509,33.509,0,0,0-3.931-3.742,17.886,17.886,0,0,0-2.054-1.459,5.088,5.088,0,0,0-2.5-.553c-2.011,0-4.269.777-5.042,2.012a1.875,1.875,0,0,0-.215.46,6.729,6.729,0,0,1-2.688,2.973c-.157.109-.31.212-.459.308-.815.529-1.466.859-1.466.859a16.782,16.782,0,0,1-3.319,1.459,6.619,6.619,0,0,1-1.819.308,2.967,2.967,0,0,1-.834-.108,1.87,1.87,0,0,0-.522-.072,4.45,4.45,0,0,0-2.607,1.165A8.665,8.665,0,0,0,277,303.879a5.959,5.959,0,0,0-1.378,2.974A5.582,5.582,0,0,1,276.85,309a29,29,0,0,1,.589,7.961A25.9,25.9,0,0,0,280.295,322.759Zm18.285-23.785a1.431,1.431,0,1,1-.234,1.686A1.421,1.421,0,0,1,298.579,298.974Zm-1.682,4.465a1.435,1.435,0,1,1-.569,1.949A1.435,1.435,0,0,1,296.9,303.439Zm-16.556,7.582,1.832-1-1-1.832a.537.537,0,0,1,.214-.73l1.078-.59a.537.537,0,0,1,.73.213l1,1.832,1.832-1a.537.537,0,0,1,.73.213l.591,1.079a.537.537,0,0,1-.214.73l-1.832,1,1,1.832a.538.538,0,0,1-.213.73l-1.079.59a.538.538,0,0,1-.73-.213l-1-1.832-1.832,1a.538.538,0,0,1-.73-.213l-.591-1.078A.535.535,0,0,1,280.341,311.021Z" transform="translate(-236.794 -254.509)"/><path class="a" d="M67.5,351.051a5.522,5.522,0,0,0-.46-.672c-.131-.165-.277-.324-.428-.482a7.2,7.2,0,0,0-4.531-2.314,2.138,2.138,0,0,0-1.035.238,4.244,4.244,0,0,1-2,.4,15.766,15.766,0,0,1-4.189-.734,17.916,17.916,0,0,1-2.49-.88,6.207,6.207,0,0,1-2.906-2.17,1.855,1.855,0,0,0-.159-.221,4.72,4.72,0,0,0-3.654-1.26,6.5,6.5,0,0,0-4.175,1.278A30.643,30.643,0,0,0,33.649,358.7c-.8,4.092.235,5.274,1.871,5.274a10.419,10.419,0,0,0,3.65-1.04c2.052-.875,3.343-1.849,5.937-1.849a20.007,20.007,0,0,1,5.5.971c6.944,2.028,7.245,4.082,9.166,6.9,1.079,1.58,2.334,3.224,3.674,3.224,1.047,0,2.147-1,3.257-3.821a27.664,27.664,0,0,0,1.745-8.539c.023-.42.036-.831.044-1.235.01-.561,0-1.1-.011-1.618a24.2,24.2,0,0,0-.591-5.011A3.679,3.679,0,0,0,67.5,351.051Zm-18.931,1.865-.345,1.18a.538.538,0,0,1-.667.366l-2.005-.585-.585,2.005a.538.538,0,0,1-.667.365l-1.18-.345a.538.538,0,0,1-.366-.667l.585-2.005-2.005-.585a.538.538,0,0,1-.366-.667l.345-1.181a.538.538,0,0,1,.667-.366l2.005.585.585-2.005a.538.538,0,0,1,.667-.365l1.18.345a.538.538,0,0,1,.366.667l-.585,2.005,2.005.585A.539.539,0,0,1,48.573,352.916Zm11.453,5.641a1.435,1.435,0,1,1-.976-1.78A1.436,1.436,0,0,1,60.026,358.557Zm4.768-1.917a1.435,1.435,0,1,1-.975-1.78A1.435,1.435,0,0,1,64.794,356.64Z" transform="translate(-28.672 -297.239)"/><path class="a" d="M129.056,88.217H123.63L132.488,113h5.342l8.876-24.783H141.4l-6.069,18.343Z" transform="translate(-106.214 -78.385)"/><path class="a" d="M310.479,105.608a5.573,5.573,0,0,1-3.643,1.022,5.39,5.39,0,0,1-3.626-1.149,5.94,5.94,0,0,1-1.784-3.6l-4.869.473a9.45,9.45,0,0,0,3.009,6.331q2.519,2.172,7.219,2.173a14.041,14.041,0,0,0,5.393-.9,7.092,7.092,0,0,0,3.348-2.764,7.8,7.8,0,0,0,.195-7.938,6.963,6.963,0,0,0-2.739-2.519,24.261,24.261,0,0,0-5.4-1.784,13.15,13.15,0,0,1-4.6-1.657,1.9,1.9,0,0,1-.744-1.5,1.8,1.8,0,0,1,.795-1.538,5.718,5.718,0,0,1,3.415-.9,5.046,5.046,0,0,1,3.17.837,4.247,4.247,0,0,1,1.378,2.747l5-.22a7.221,7.221,0,0,0-2.477-5.461q-2.357-2.046-7.024-2.046a12.394,12.394,0,0,0-4.877.862,6.726,6.726,0,0,0-3.094,2.51,6.372,6.372,0,0,0-1.073,3.542,6.451,6.451,0,0,0,2.282,4.987,13.59,13.59,0,0,0,5.646,2.451q3.127.777,4.006,1.082a4.128,4.128,0,0,1,1.8,1.073,2.259,2.259,0,0,1,.515,1.5A3.035,3.035,0,0,1,310.479,105.608Z" transform="translate(-254.781 -75.802)"/></g></g></svg>