<svg xmlns="http://www.w3.org/2000/svg" width="19.926" height="13.586" viewBox="0 0 19.926 13.586"><defs><style>.a{fill:#fffbfb;}</style></defs><g transform="translate(0 -89.25)"><g transform="translate(0 89.25)"><path class="a" d="M9.963,89.25A10.671,10.671,0,0,0,0,96.043a10.7,10.7,0,0,0,19.926,0A10.671,10.671,0,0,0,9.963,89.25Zm0,11.321a4.529,4.529,0,1,1,4.529-4.529A4.485,4.485,0,0,1,9.963,100.571Zm0-7.246a2.717,2.717,0,1,0,2.717,2.717A2.669,2.669,0,0,0,9.963,93.326Z" transform="translate(0 -89.25)"/></g></g></svg>