<svg xmlns="http://www.w3.org/2000/svg" xmlns:xlink="http://www.w3.org/1999/xlink" width="2221.672" height="1071.004" viewBox="0 0 2221.672 1071.004"><defs><style>.a{fill:#0f0f0f;stroke:#707070;opacity:0.84;}.b{clip-path:url(#a);}.c{fill:url(#b);}.d{fill:url(#c);}.e{fill:none;}</style><clipPath id="a"><rect class="a" width="2221.672" height="1071.004" transform="translate(0 4483)"/></clipPath><radialGradient id="b" cx="1181.045" cy="2088.581" r="471.939" gradientTransform="translate(-936.45 -32149.563) scale(1.793 16.393)" gradientUnits="userSpaceOnUse"><stop offset="0" stop-color="#460d1b"/><stop offset="0.25" stop-color="#8c1936"/><stop offset="1" stop-color="#460d1b"/></radialGradient><linearGradient id="c" x1="-4.786" y1="-3.203" x2="-3.792" y2="-3.203" gradientUnits="objectBoundingBox"><stop offset="0" stop-color="#d1d1d1"/><stop offset="1" stop-color="#4e5151" stop-opacity="0.8"/></linearGradient></defs><g class="b" transform="translate(0 -4483)"><g transform="translate(-59.589 2884.838)"><g transform="translate(0 0)"><rect class="c" width="2337.785" height="4191.416" transform="translate(0 59.16)"/><path class="d" d="M1204.771,3580.94l-.193-.636L928.631,3331.575l-139.1-501.627-.193-.671-275.85-248.694-139.1-501.839-.193-.671L98.324,1829.557l-93.5-337.293v10.178L96.28,1832.278l.193.672L372.38,2081.572l139.082,501.839.174.671,275.889,248.693,139.082,501.839.193.671,275.869,248.27,139.005,501.838.193.707,181.541,163.628h5.534L1343.7,4082.743Zm34.149-63.366-.193-.672L962.78,3268.209l-139.1-501.663-.193-.671L547.617,2517.147l-139.1-501.839-.174-.636L132.472,1766.155,4.15,1303.191v10.143l126.3,455.436.193.672,275.85,248.8L545.611,2519.8l.193.707L821.654,2769.2l139.1,501.663.193.671,275.869,248.764,139.1,501.485.174.671,250.494,225.828h5.534l-254.2-229.079Zm688.121,243.074-275.927-248.693-139.1-501.839-.193-.672-275.87-248.516-139.159-501.663-.193-.707L820.806,2009.9,681.7,1508.062l-.193-.671L405.642,1258.874,266.56,757.212l-.193-.672L1.334,517.636v5.054l263.2,237.137,139.1,501.839.174.672L679.7,1511.03l139.082,501.839.173.672,275.908,248.446,139.1,501.839.174.671,275.869,248.729,139.1,501.627.174.671,275.889,248.693,132.854,479.22h2.777l-133.625-481.907Zm-34.129,63.4-275.87-248.693-139.178-501.663-.193-.636L1201.8,2824.329l-139.082-501.662-.193-.671L786.657,2073.3,647.517,1571.64l-.193-.636L371.493,1322.275,232.411,820.613l-.193-.672L1.682,612.1v5.089L230.387,823.44l139.1,501.839.193.707,275.908,248.375L784.69,2076.2l.193.672,275.812,248.552,139.1,501.839.174.636,275.869,248.516,139.1,501.839.193.672,275.85,248.481,115.481,416.385h2.757l-116.214-419.106ZM897.259,4150.986,621.39,3902.258,482.211,3400.631l-.193-.672-275.85-248.693L67.125,2649.6l-.193-.671-58.174-52.41v5.089l56.285,50.714,139.1,501.839.174.636,275.869,248.517,139.1,501.839.193.706,275.87,248.693,28.422,102.488h2.757L897.375,4151.87Zm-34.149,63.366L587.164,3965.7l-139.1-501.84-.193-.671L172.02,3214.667l-139.1-501.839-.193-.671-23.64-21.2v5.054l21.789,19.649L170,3217.389l.193.671,275.85,248.87,139.1,501.84.193.671L861.2,4218.134l10.991,39.688h2.854l-11.762-42.409Zm273.363-506.574-.193-.671L860.334,3458.413,721.252,2956.574l-.193-.636L445.19,2707.386l-139.1-501.627-.193-.707L30.046,1956.359l-23.891-86.09v10.143l21.808,78.668.193.707,275.869,248.693,139.1,501.839.174.636,275.889,248.693,139.082,501.839.193.707,275.889,248.658,139.082,501.662.174.671,43.6,39.3h5.553l-47.318-42.621Zm34.149-63.4-.193-.671L894.483,3395.012,755.5,2893.35l-.193-.672L479.319,2643.985,340.237,2142.323l-.193-.671L64.175,1892.958,5.422,1681.267v10.178L62.17,1895.679l.193.672,275.85,248.834,139.1,501.662.193.671,275.87,248.587L892.4,3397.733l.193.672,275.927,248.764,139.1,501.839.174.671,112.55,101.463h5.553l-116.271-104.786Zm585.617,433.278L1480.37,3829l-139.1-501.839-.174-.672L1065.226,3077.97l-139.1-501.627-.193-.671L650.063,2326.943,510.98,1825.28l-.193-.671L234.88,1575.916,95.817,1074.36l-.174-.672L3.089,990.213v5.054l90.742,81.814,139.1,501.839.193.672,275.85,248.693,139.1,501.839.193.672,275.87,248.693,139.1,501.839.193.672,275.87,248.693,139.082,501.839.193.671,275.87,248.693,45.814,165.254h2.777l-46.6-168.823Zm-68.3,126.838-275.87-248.657-139.082-501.662-.193-.707L996.929,3204.772l-139.1-501.839-.193-.636-275.85-248.552-139.1-501.627-.193-.672L166.64,1702.754l-139.1-501.663-.193-.671-23.64-21.2v5.089l21.77,19.649,139.1,501.839.193.672,275.869,248.693L579.741,2457l.174.636,275.85,248.2L994.846,3207.67l.193.707,275.87,248.693,139.082,501.662.193.636L1686.072,4208.1l10.991,39.652h2.757l-11.743-42.409Zm34.149-63.4L1446.222,3892.4l-139.1-501.839-.174-.671-275.87-248.517-139.1-501.839-.174-.671L615.914,2390.344l-139.1-501.839-.174-.672L200.77,1639.317l-139.1-501.662-.193-.672L3.359,1084.608v5.054l56.265,50.749,139.1,501.627.193.707,275.889,248.693,139.1,501.627.173.672,275.87,248.729,139.1,501.627.174.672,275.812,248.693,139.1,501.839.193.706L1720.2,4144.66l28.4,102.488h2.777l-29.1-105.209Zm136.595-253.606-275.869-248.693-139.1-501.7-.193-.671-275.85-248.693-139.121-501.839-.174-.671L752.508,2136.739l-139.1-501.662-.193-.707-275.85-248.693L198.244,884.014l-.193-.671L1.99,706.639v5.089L196.315,886.771,335.4,1388.4l.193.707L611.479,1637.8l139.082,501.839.193.636L1026.623,2389l139.1,501.627.174.707,275.889,248.657,139.082,501.839.193.707,275.792,248.481,97.992,353.408h2.777l-98.8-356.305Zm102.619-189.533-.193-.672-275.869-248.763-139.082-501.627-.193-.672L1270.1,2697.526l-139.082-501.663-.193-.671L854.935,1946.5,715.872,1444.837l-.193-.672L439.791,1195.472,300.709,693.81l-.193-.672L24.7,444.446.775,358.355V368.5l21.808,78.669.193.672L298.646,696.531l139.1,501.839.174.671,275.908,248.516,139.1,501.662.193.671,275.869,248.693,139.082,501.663.193.671,275.869,248.693,139.1,501.839.193.671,275.85,248.694,139.1,501.627.193.707,43.6,39.264h5.5l-47.28-42.656Zm-136.768,252.969-275.87-248.728-139.1-501.663-.193-.707-275.947-248.657L994.345,2449.328l-.193-.636L718.36,2200.1,579.278,1698.478l-.193-.671L303.2,1448.972,164.114,947.133l-.174-.672L2.356,801.1v5.089L162.07,950.172l139.1,501.839.193.672,275.85,248.693,139.1,501.839.193.671,275.869,248.693,139.1,501.839.193.671,275.87,248.693,139.082,501.663.193.636,275.87,248.729,80.638,290.819h2.777L1824.71,3952.3ZM931.331,4087.585,655.461,3838.927,516.4,3337.229l-.193-.707L240.3,3087.865,101.2,2586.026l-.174-.636L8.411,2502.127v5.089l90.761,81.779,139.082,501.839.193.672L514.316,3340.2l139.121,501.344.173.636L929.5,4090.907l45.814,165.324h2.777L931.5,4088.256Zm1203.2,48.629-139.1-501.662-.193-.707-275.85-248.693L1580.31,2883.313l-.193-.707-275.87-248.516-139.1-501.839-.174-.636L889.1,1883.1,750,1381.259l-.193-.707L473.978,1132.036,334.838,630.409l-.174-.672L58.8,381.044.1,169.353V179.5l56.632,204.27.193.671L332.775,633.13l139.1,501.839.193.671,275.889,248.693,139.063,501.839.193.672L1163.1,2135.537l139.082,501.839.193.672,275.87,248.693,139.1,501.839.193.672,275.869,247.986,139.1,501.839.193.636,112.55,101.5h5.534Zm-344.167-121.89-275.85-248.764-139.1-501.627-.174-.671-275.869-248.694-139.1-501.839-.193-.671L684.153,2263.506,545.11,1761.879l-.193-.672-275.85-248.623-139.1-501.839-.193-.671L2.684,895.606V900.7l125.334,112.878L267.1,1515.412l.174.672,275.889,248.693,139.082,501.839.193.671,275.87,248.693,139.1,501.663.193.672,275.869,248.693,139.082,501.663.193.671L1788.614,4018l63.226,228.089h2.738l-64-230.775ZM208.829,3907.241l-196.061-176.7v4.983L206.978,3910.6l98.069,353.62H307.8l-98.763-356.306ZM174.7,3970.854,13.135,3824.968v5.054l159.714,144.014,80.638,290.819h2.777l-81.39-293.54Zm102.427-190.24L12.113,3541.464v5.089L275.372,3783.8l132.873,479.221H411L277.3,3781.075ZM140.532,4034.22,13.463,3919.292v5.089L138.8,4037.26l63.149,228.373h2.777l-63.978-230.776ZM311.449,3717.85l-.174-.636-275.85-248.94-23.871-86.161v10.143l21.808,78.668.193.672,275.869,248.658,139.1,501.839.174.706,43.578,39.264h5.553l-47.3-42.621ZM38.2,4224.248l-23.64-21.2v5.088l21.712,19.544,11.01,39.652H50.06l-11.743-42.409Zm34.129-63.4-58.193-52.411v5.23l56.285,50.714,28.4,102.489h2.757L72.428,4161.694Zm893.225-136.7L689.591,3775.455,550.509,3273.792l-.193-.671L274.447,3024.428,135.365,2522.766l-.193-.672L8.083,2407.52v5.089L133.417,2525.7l139.1,501.627.174.706,275.869,248.658,139.1,501.662.193.707,275.85,248.657,63.245,228.054h2.757L965.672,4024.82ZM106.422,4097.41l-92.554-83.475v5.089l90.742,81.814,45.834,165.253H153.2l-46.6-167.975Zm239.195-443.173-.174-.707L69.574,3404.907,10.879,3193.181v10.178l56.632,204.27.193.636,275.85,248.729,139.1,501.627.193.671,112.608,101.464h5.515l-116.252-104.68Zm722.251,179.708L792.133,3585.216,652.955,3083.589l-.193-.672L376.892,2834.33l-139.1-501.839-.193-.636L7.061,2123.981v5.053l228.705,206.178,139.082,501.839.193.672L650.93,3086.31l139.082,501.839.193.636,275.889,248.729,115.538,416.244h2.777L1068.1,3834.474Zm-68.3,126.8L723.72,3712.054,584.657,3210.391l-.193-.672L308.6,2961.027l-139.1-501.839-.174-.672L7.736,2313.018v5.089l159.733,143.978,139.082,501.839.193.636,275.869,248.694,139.1,501.839.193.671,275.87,248.693,80.638,290.854h2.757l-81.39-293.54Zm34.168-63.4L757.85,3648.617,618.806,3146.99l-.193-.671L342.744,2897.626,203.662,2396.1l-.193-.707L7.35,2218.518v5.089l194.19,175.078,139.1,501.663.193.671L616.7,3149.711l139.1,501.839.193.671,275.85,248.693,98.05,353.619h2.777l-98.725-356.446Zm68.278-126.838L826.185,3521.85,687.1,3020.011l-.193-.672L411.022,2770.717,271.959,2269.125l-.193-.671L6.733,2029.55v5.089L269.9,2271.882,409,2773.509l.193.707L685.06,3022.909l139.082,501.662.193.672,275.87,248.693L1233.1,4253.122h2.757L1102.229,3771.25ZM379.727,3590.835l-.193-.672L103.761,3341.471,10.2,3004.214v10.143l91.455,329.835.193.707,275.869,248.657,139.1,501.662.174.671,181.522,163.664h5.534L518.867,4092.462Zm34.149-63.4-.193-.672L137.852,3278.069,9.529,2815.246v10.143l126.317,455.4.193.672,275.869,248.693,139.082,501.662.193.671,250.591,225.828h5.534L553.035,4029.1ZM242.959,3843.8l-230.5-207.84v5.089L241.146,3847.2l115.461,416.42h2.777L243.171,3844.51ZM1328.446,306.193,1467.528,807.82l.193.671,275.87,248.693,139.082,501.839.193.636,275.889,248.693,139.082,501.839.193.672,23.659,21.2v-5.23L2300,2307.188l-139.1-501.839-.193-.672L1884.755,1556.16l-139.1-501.662-.193-.672L1469.592,805.134l-139.1-501.662-.173-.671L1054.37,54.107l-10.933-39.688h-2.777l11.955,43.08ZM984.318,184.337,1260.188,433.03l139.1,501.839.173.671,275.889,248.375,139.082,501.839.174.672L2090.5,1935.12l139.082,501.839.193.636,92.554,83.51v-5.054l-90.78-81.849-139.1-501.627-.173-.671L1816.458,1683l-139.1-501.839-.193-.672L1401.294,931.936,1262.212,430.309l-.193-.671L986.15,180.945,940.316,15.656h-2.757l46.566,168.116ZM745.1,627.511l.193.671,275.85,248.693,139.1,501.839.193.672,275.87,248.693,139.1,501.839.174.671,275.869,248.693,139.1,501.839.193.671,275.869,248.693,58.695,211.727V3332.07l-56.651-204.305-.173-.671L1992.619,2878.4l-139.1-501.839-.193-.671-275.889-249.046-139.1-501.663-.193-.672L1162.35,1375.781,1023.172,874.154l-.174-.671L747.109,624.79,608.027,123.127l-.193-.671L495.188,20.992h-5.534L605.926,125.778Zm34.149-63.4.173.672,275.889,248.693L1194.4,1315.313l.193.671,275.869,248.693,139.1,501.839.174.671,275.869,248.34,139.1,501.663.193.671,275.869,248.693,23.871,86.125v-10.143l-21.808-78.7-.193-.672-275.869-248.728-139.1-501.839-.193-.636-275.85-248.516L1472.465,1561.78l-.193-.672-275.85-248.693-139.1-501.839-.193-.671L781.277,561.388,642.176,59.726l-.193-.671-43.6-39.3h-5.534l47.3,42.621ZM2313.859,128.852V118.71L2292.032,39.97l-.193-.671L2248.223,0h-5.534l47.3,42.621ZM881.872,374.612l275.87,248.693,139.1,501.839.173.672,275.87,248.729,139.1,501.627.193.672,275.869,248.728,139.1,501.627.193.672,196.061,176.7v-5.089l-194.248-175.255-139.082-501.662-.193-.672-275.87-248.834L1574.988,1371.54l-.173-.672-275.966-248.693L1159.766,620.513l-.193-.672L883.7,371.078,785.635,17.67h-2.757l98.8,356.341ZM916.021,311,1191.89,559.692l139.082,501.839.193.671,275.889,248.729,139.082,501.839.193.636L2022.2,2062.1l139.1,501.839.174.672,161.584,145.674V2705.2L2163.3,2561.217l-139.1-501.839-.174-.672L1748.161,1809.8l-139.1-501.839-.193-.672L1333,1058.774,1193.915,557.112l-.193-.671L917.853,307.747,837.215,16.893h-2.777l81.39,293.54Zm34.226-63.26,275.735,248.693,139.1,501.839.174.672,275.927,248.587,139.1,501.839.193.672,275.87,248.693,139.082,501.839.193.671,127.108,114.575v-5.09L2197.4,2497.638l-139.082-501.662-.193-.636L1782.29,1746.4l-139.082-501.839-.174-.672L1367.146,995.373,1228.064,493.711l-.193-.671L952,244.346,888.775,16.292H886l63.978,230.74ZM159.409,194.374,435.259,443.1,574.38,944.73l.174.671,275.87,248.693,139.1,501.839.174.636,275.869,248.693,139.1,501.663.193.671,275.869,248.693,139.14,501.344.193.672,275.869,248.728,139.1,501.627.174.671,92.554,83.51v-5.089l-90.78-81.814L2097.9,3444.277l-.193-.672-275.908-248.8L1682.756,2693.25l-.193-.672-275.87-248.693-139.1-501.662-.193-.671L991.53,1692.823,852.428,1191.2l-.174-.671L576.385,941.832,437.342,440.169l-.174-.672L161.241,190.84,115.33,25.516h-2.7l46.586,168.045Zm34.129-63.613L469.408,379.454l139.1,501.839.193.671,275.869,248.693L1023.654,1632.5l.193.672,275.869,248.375,139.1,501.627.193.707,275.87,248.693,139.082,501.839.193.671,275.869,248.693,139.121,501.486.193.671,58.155,52.41v-4.912l-56.3-50.749-139.14-501.8-.193-.672-275.87-248.693-139.1-501.839-.193-.671-275.85-248.552-139.1-501.627-.193-.672L1025.7,1629.457,886.616,1127.795l-.193-.672L610.534,878.43l-139.1-501.662-.193-.672L195.39,127.4,166.968,24.915h-2.777l29.174,105.174ZM503.557,316.088l139.1,501.839.193.671,275.87,248.693,139.1,501.839.193.672,275.947,248.339,139.1,501.662.193.636,275.754,248.834,139.1,501.839.193.671,275.87,248.693,139.1,501.839.174.672,23.659,21.2V3839.1L2305.3,3819.49l-139.082-501.839-.193-.706L1890.135,3068.11l-139.1-501.839-.174-.636-275.889-248.587L1335.889,1815.42l-.193-.671-275.869-248.693L920.745,1064.394l-.193-.672L644.683,815.029l-139.1-501.662-.193-.672L229.519,63.967,218.528,24.314h-2.777l11.936,43.08Zm207.4,374.824.193.671L987,940.277l139.121,501.839.174.672,275.869,248.693,139.1,501.839.193.707,275.85,248.658,139.1,501.839.193.636,275.908,248.2,93.519,337.327v-10.142l-91.59-329.906-.193-.672-275.869-248.693-139.082-501.839-.193-.672-275.831-248.516-139.1-501.662-.174-.636-275.869-248.728-139.1-501.662-.193-.671L713.076,688.191l-139.2-501.662-.193-.671L392.164,22.229H386.63L571.854,189.215ZM91.112,321.036,366.982,569.729l139.1,501.839.174.671,275.87,248.693,139.2,501.485.193.672,275.869,248.693,139.082,501.662.193.636,275.869,248.693,139.082,501.662.193.707,275.87,248.657,139.1,501.839.193.671,161.584,145.675v-5.054L2168.8,4072.918l-139.082-501.839-.193-.671L1753.54,3321.714l-139.082-501.521-.193-.636L1338.4,2570.688l-139.082-501.627-.193-.707-275.87-248.693-139.1-501.45-.193-.707-275.869-248.87-139.1-501.627-.173-.707L92.944,317.643,12.287,26.753H9.529l81.39,293.611ZM676.807,754.349l.193.636,275.85,248.693,139.1,501.839.193.707,275.869,248.693,139.1,501.839.174.636,275.946,248.269L1922.259,3007.5l.193.707,275.87,248.657,128.342,462.965v-10.143l-126.279-455.472-.193-.636-275.908-248.905-139.12-501.663-.193-.671-275.831-248.693-139.1-501.627-.193-.707-275.87-248.693-139.1-501.627-.174-.707L678.831,751.592,539.73,249.93l-.193-.636L289.043,23.466h-5.534l254.2,229.22ZM847.724,437.978l275.889,248.693,139.082,501.839.173.671,275.889,248.481,139.1,501.839.193.672,275.85,248.693L2093,2690.529l.193.636,230.537,207.875v-5.089l-228.686-206.178-139.1-501.627-.193-.707-275.889-248.763-139.1-501.839-.174-.636L1264.7,1185.577,1125.714,683.95l-.193-.707L849.555,434.692,734.094,18.13h-2.777L847.531,437.271ZM125.261,257.634,401.13,506.327l139.082,501.627.193.672,275.869,248.729,139.082,501.627.193.707,275.889,248.693L1370.6,2510.008l.193.671,275.792,248.728,139.1,501.627.174.672L2061.727,3510.4l139.1,501.84.174.671,127.108,114.61v-5.089l-125.334-113.09-139.1-501.839-.193-.636L1787.689,3258.42l-139.082-501.839-.193-.707-275.889-248.587-139.1-501.839-.193-.671L957.4,1756.437,818.3,1254.6l-.193-.707L542.237,1005.233l-139.1-501.662-.193-.671L127.092,254.206,63.847,26.152H61.09l63.978,230.775Zm893.206-136.7,275.869,248.693,139.082,501.839.193.636,275.869,248.552,139.1,501.485.193.707,275.87,248.693,139.082,501.627.193.672,58.136,52.41V2421.2l-56.284-50.75-139.082-501.662-.193-.672-275.908-248.552-139.082-501.627-.193-.707-275.87-248.693L1296.361,366.873l-.193-.636L1020.3,117.543,991.877,15.055h-2.757l29.155,105.1ZM1775.1,237.879l275.85,248.693,139.1,501.839.193.672,127.108,114.4v-5.089L2192.016,985.477l-139.1-501.839-.193-.671L1776.91,234.451,1713.684,6.4h-2.777l64,230.775Zm-68.3,126.8,275.85,248.693,139.1,501.839.193.671,196.08,176.7V1287.5L2123.8,1112.422l-139.1-501.839-.174-.671L1708.613,361.289,1610.563,7.634h-2.8l98.84,356.376Zm-34.149,63.4L1948.5,676.776l139.1,501.839.193.672,230.556,207.839v-5.3l-228.724-206.107-139.1-501.839-.174-.672L1674.484,424.69,1559,8.234h-2.757l116.214,419.142Zm68.278-126.8L2016.8,549.973l139.1,501.839.193.672,161.584,145.675v-5.089l-159.752-144.014L2018.843,547.429l-.193-.707L1742.742,297.887,1662.124,7.068h-2.777l81.467,293.541ZM1638.5,491.484l275.85,248.693,139.1,501.839.174.671,265.033,238.939v-5.054l-263.2-237.278-139.1-501.839-.174-.671-275.85-248.693L1507.5,8.871h-2.776l133.625,481.907Zm676.031-173.629V307.677l-56.67-204.305-.173-.671L2145.1,1.237h-5.534L2255.84,106.022ZM2315.884,696V685.858L2189.567,230.174l-.193-.636L1938.88,3.711h-5.534l254.2,229.15Zm-.675-189V496.856l-91.494-330.048-.193-.707L2041.982,2.474h-5.515l185.224,167.162Zm-711.048,47.251.193.636,275.869,248.693,139.082,501.839.193.707,275.869,248.658,23.91,85.984v-10.143l-21.827-78.739-.193-.636L2021.388,1302.52l-139.14-501.662-.193-.671L1606.186,551.493,1467.008,49.83l-.193-.636L1423.3,9.86h-5.534l47.318,42.727Zm205.065-379.807L2085.1,423.135l139.1,501.839.193.672,92.554,83.51v-5.089l-90.761-81.814-139.063-501.7-.193-.671-275.87-248.834L1765.245,5.8h-2.777l46.566,168.01ZM1501.716,744.454l.193.671,275.869,248.693,139.1,501.839.193.671,275.85,248.693,128.361,462.964v-10.143L2194.947,1742.3l-.193-.672-275.87-248.87L1779.8,991.1l-.193-.671L1503.74,741.732l-139.1-501.662-.173-.671L1113.952,13.571h-5.534l254.215,229.22Zm68.3-126.8.193.671,275.87,248.693,139.1,501.627.173.707,275.869,248.693,58.714,211.726v-10.143l-56.651-204.3-.193-.707-275.907-248.693L1848.1,864.294l-.193-.671L1572.037,614.93l-139.1-501.662-.193-.671L1320.194,11.1h-5.534l116.271,104.821Zm-34.149,63.4.193.671,275.87,248.693,139.082,501.839.193.672,275.869,248.693,93.538,337.293V2008.77L2229.1,1678.687l-.193-.672-275.87-248.693L1813.951,927.7l-.193-.671L1537.889,678.331,1398.787,176.7l-.173-.671-181.541-163.7h-5.534l185.244,166.985Zm307.511-570.011,275.869,248.693,139.082,501.839.193.671,58.155,52.41V909.6l-56.3-50.82-139.1-501.839-.193-.671L1845.208,107.648,1816.8,5.16h-2.719l29.155,105.174Zm310.076,185.292,139.1,501.839.173.671,23.659,21.2v-5.054L2294.5,795.167,2155.38,293.611l-.193-.671L1879.356,44.247l-11.01-39.688h-2.757L1877.524,47.6ZM813.633,501.309,1089.5,750l139.1,501.839.193.672L1504.608,1501.1l139.082,501.839.193.672,275.87,248.516,139.1,501.627.193.707,265.033,238.9v-5.054L2060.9,2751.032l-139.12-501.663-.193-.671-275.87-248.658-139.082-501.592-.193-.707-275.87-248.728-139.1-501.839-.193-.636L815.407,497.987,682.534,18.731h-2.757L813.344,500.708Z" transform="translate(0.362)"/><rect class="e" width="2329.281" height="4099.53" transform="translate(11.569 90.967)"/></g></g></g></svg>