<svg xmlns="http://www.w3.org/2000/svg" width="1975.15" height="4972" viewBox="0 0 1975.15 4972"><defs><style>.a{opacity:0.6;}.b{fill:rgba(255,255,255,0.7);}.c{fill:#eff0f1;}.d{fill:none;}</style></defs><g class="a"><rect class="b" width="1972.564" height="4937.053" transform="translate(0 27.236)"/><path class="c" d="M1016.71,4172.268l-.163-.742-232.837-289.8-117.37-584.461-.163-.782L433.423,3006.72l-117.37-584.709-.163-.782L83.118,2131.675,4.226,1738.685v11.859l77.168,384.3.163.782,232.8,289.678,117.354,584.709.146.782,232.788,289.76L782,3885.266l.163.782,232.772,289.266,117.289,584.708.163.824,153.18,190.648h4.669l-156.3-194.56Zm28.814-73.83-.163-.783-232.837-289.76-117.37-584.5-.163-.782-232.772-289.8L344.85,2348.1l-.146-.741L111.932,2057.8,3.657,1518.39v11.818l106.567,530.643.163.783,232.755,289.884L460.528,2935.9l.163.824,232.755,289.76,117.37,584.5.163.782,232.772,289.842,117.37,584.3.146.781,211.36,263.12h4.669L1162.813,4682.9Zm580.619,283.213-232.82-289.76-117.37-584.709-.163-.782-232.772-289.554L925.6,2632.342l-.163-.823L692.73,2341.8,575.36,1757.091l-.163-.782L342.426,1466.754l-117.354-584.5-.163-.782L1.281,603.115V609L223.364,885.3l117.37,584.709.146.782,232.788,289.76,117.354,584.708.146.783,232.8,289.472,117.37,584.709.146.782,232.772,289.8,117.37,584.462.146.782,232.788,289.761,112.1,558.354h2.343l-112.75-561.484Zm-28.8,73.87-232.772-289.76-117.435-584.5-.163-.741-232.772-289.8-117.354-584.5-.163-.782L663.917,2415.67l-117.4-584.5-.163-.741-232.739-289.8-117.354-584.5-.163-.782L1.574,713.18v5.929L194.55,959.416l117.37,584.709.163.823,232.8,289.39,117.37,584.709.163.782,232.723,289.6,117.37,584.709.146.741,232.771,289.555,117.37,584.709.163.783,232.755,289.512,97.44,485.144h2.327l-98.058-488.314ZM757.24,4836.446l-232.772-289.8L407.033,3962.184l-.163-.783-232.755-289.76-117.321-584.5-.163-.782L7.545,3025.291v5.929l47.491,59.089,117.37,584.708.146.741,232.772,289.554,117.37,584.708.163.824L755.629,4840.6l23.982,119.413h2.327l-24.6-122.542Zm-28.814,73.831L495.59,4620.558l-117.37-584.709-.163-.782L145.3,3745.512,27.931,3160.8l-.163-.782L7.822,3135.315v5.888L26.207,3164.1l117.386,584.585.163.782,232.755,289.966,117.37,584.708.163.783,232.772,289.761,9.274,46.242H738.5l-9.924-49.413ZM959.083,4320.05l-.163-.782-232.837-289.76L608.729,3444.8l-.163-.741L375.8,3154.462,258.425,2570l-.163-.824L25.507,2279.416,5.349,2179.11v11.818l18.4,91.659.163.823,232.772,289.76,117.37,584.708.146.742,232.788,289.76L724.343,4033.09l.163.823,232.788,289.719,117.354,584.5.146.782,36.786,45.789h4.686l-39.926-49.66Zm28.814-73.871-.163-.782L754.9,3955.636l-117.273-584.5-.163-.782-232.869-289.76-117.354-584.5-.163-.783L54.3,2205.546,4.73,1958.9v11.859l47.882,237.96.163.782L285.53,2499.424l117.37,584.5.163.782,232.772,289.637L753.14,3958.807l.163.782,232.82,289.842,117.37,584.709.146.782,94.967,118.218h4.686l-98.107-122.089Zm494.129,504.826-232.772-289.719-117.37-584.709-.146-.782L898.966,3586.24,781.6,3001.779l-.163-.783L548.661,2711.2l-117.354-584.5-.163-.782-232.8-289.76L81,1251.771l-.146-.782L2.762,1153.729v5.888l76.566,95.324L196.7,1839.65l.163.782,232.755,289.76L546.986,2714.9l.163.782,232.772,289.76,117.37,584.709.163.783,232.772,289.76L1247.578,4465.4l.163.782,232.772,289.761,38.657,192.542h2.343l-39.324-196.7ZM1424.4,4898.788l-232.772-289.719-117.354-584.5-.163-.824-232.772-289.76-117.37-584.709-.163-.741-232.755-289.6L373.68,2274.475l-.163-.782-232.755-289.76-117.37-584.5-.163-.782L3.282,1373.942v5.93l18.369,22.894,117.37,584.709.163.782,232.772,289.76,117.37,584.708.146.742L722.227,3152.65l117.354,584.708.163.824,232.772,289.76,117.354,584.5.163.742,232.788,289.8,9.274,46.2h2.327l-9.908-49.411Zm28.814-73.87-232.772-289.76-117.37-584.709-.146-.783L870.152,3660.112,752.782,3075.4l-.146-.782L519.848,2785.066l-117.37-584.708-.146-.782L169.56,1910.021l-117.37-584.5-.163-.782L2.99,1263.712v5.888l47.475,59.13,117.37,584.462.163.823,232.788,289.76,117.37,584.462.146.782,232.772,289.8,117.37,584.461.146.783,232.723,289.76,117.37,584.708.163.823,232.772,289.72,23.965,119.413h2.343l-24.551-122.583Zm115.255-295.485L1335.7,4239.673l-117.37-584.543-.163-.782-232.755-289.76L868.021,2779.878l-.146-.782L635.1,2489.583l-117.37-584.5-.163-.824L284.815,1614.5l-117.386-584.5-.163-.782L1.834,823.327v5.93L165.8,1033.2l117.354,584.462.163.824,232.788,289.76L633.46,2492.959l.163.741,232.772,289.8,117.37,584.462.146.823L1216.7,3658.506l117.354,584.71.163.823,232.706,289.513,82.683,411.767h2.343l-83.366-415.143Zm86.588-220.831-.163-.782L1422.12,4017.978l-117.354-584.462-.163-.782-232.772-289.761-117.354-584.5-.163-.783-232.788-289.76-117.338-584.5-.163-.782L371.24,1392.883,253.886,808.38l-.163-.782L21,517.838.809,417.531v11.818l18.4,91.659.163.782,232.772,289.76,117.37,584.709.146.782,232.8,289.554,117.37,584.5.163.782,232.772,289.76,117.354,584.5.163.782,232.772,289.76,117.37,584.708.163.782,232.755,289.76,117.37,584.462.163.824,36.786,45.747h4.637l-39.894-49.7Zm-115.4,294.743-232.772-289.8-117.37-584.5-.163-.823L956.512,3438.5,839.158,2853.79l-.163-.741L606.289,2563.412,488.935,1978.951l-.163-.782L255.985,1688.243,138.631,1103.535l-.146-.782L2.144,933.393v5.929l134.763,167.754,117.37,584.709.163.782,232.755,289.76,117.37,584.708.163.782L837.5,2857.578l117.37,584.709.163.782L1187.8,3732.83l117.354,584.5.163.741,232.772,289.8,68.04,338.843h2.343L1539.8,4604.952Zm-753.665,159.23L553.217,4472.856,435.879,3888.313l-.163-.823-232.8-289.719L85.542,3013.061l-.146-.741L7.252,2915.308v5.929l76.582,95.283,117.354,584.709.163.782,232.772,289.76L551.509,4475.9l.146.741,232.788,289.8L823.1,4959.07h2.343l-39.308-195.712Zm1015.234,56.659-117.37-584.5-.163-.823-232.755-289.76L1333.58,3359.439l-.163-.823-232.772-289.554-117.37-584.708-.146-.741L750.358,2194.058l-117.37-584.709-.163-.823L400.086,1318.971l-117.4-584.462-.146-.782L49.765,443.967.24,197.319v11.818l47.784,238,.163.782L280.942,737.68l117.37,584.709.163.782,232.788,289.76L748.6,2197.639l.163.783,232.788,289.76,117.354,584.709.163.782,232.772,289.76,117.37,584.708.162.783,232.772,288.936,117.37,584.709.163.741,94.967,118.26h4.669Zm-290.4-142.019-232.755-289.842L1160.7,3802.912l-.146-.783L927.78,3512.369,810.41,2927.661l-.163-.782-232.82-289.6L460.105,2052.822l-.163-.782L227.187,1762.361l-117.37-584.709-.163-.782L2.42,1043.5v5.929l105.754,131.518,117.354,584.708.146.782L458.462,2056.2l117.354,584.709.163.782,232.772,289.76,117.37,584.5.163.783,232.772,289.76L1276.408,4391l.163.783L1509.343,4681.5l53.349,265.754H1565l-54-268.885ZM176.36,4552.452,10.929,4346.567v5.806L174.8,4556.363l82.748,412.015h2.327l-83.334-415.144Zm-28.8,74.117L11.238,4456.592v5.889L146,4630.275l68.04,338.843h2.343l-68.675-342.012Zm86.425-221.654L10.376,4126.272v5.93l222.131,276.419,112.115,558.356h2.327L234.134,4405.45ZM118.733,4700.4,11.515,4566.492v5.929l105.754,131.518,53.284,266.085h2.343L118.912,4701.14Zm144.215-368.614-.146-.74L30.046,4041,9.9,3940.607v11.818l18.4,91.659.163.782L261.24,4334.585l117.37,584.709.146.824,36.77,45.748h4.686l-39.91-49.659ZM32.389,4921.806l-19.947-24.7v5.928l18.32,22.771,9.29,46.2h2.343l-9.908-49.412Zm28.8-73.871-49.1-61.065v6.093l47.491,59.089,23.965,119.412h2.327l-24.6-122.542Zm753.681-159.271L582.015,4398.9,464.661,3814.4l-.163-.783-232.772-289.76-117.354-584.5-.163-.782L6.976,2805.078v5.929l105.754,131.766L230.1,3527.234l.146.824,232.772,289.719,117.37,584.5.163.824,232.755,289.719,53.365,265.713H869l-54.032-269.089ZM89.952,4774.023l-78.095-97.26v5.93l76.566,95.324L127.1,4970.559h2.327L90.1,4774.846Zm201.827-516.356-.146-.823L58.86,3967.166,9.335,3720.477v11.859l47.784,238,.163.741,232.755,289.8,117.37,584.462.163.782,95.015,118.219h4.653l-98.09-121.965ZM901.195,4467.05l-232.658-289.8L551.1,3592.788l-.163-.782L318.168,3302.369,200.8,2717.66l-.163-.741L6.113,2474.718v5.888l192.976,240.225,117.354,584.709.163.782,232.788,289.636,117.354,584.709.163.741,232.788,289.8,97.488,484.979h2.343L901.39,4467.668Zm-57.627,147.743L610.812,4325.032l-117.338-584.5-.163-.782L260.54,3449.987,143.17,2865.278l-.146-.782L6.683,2694.971v5.929l134.779,167.754,117.354,584.709.163.741,232.772,289.76,117.37,584.708.163.782,232.772,289.76L910.095,4958h2.327l-68.675-342.013Zm28.83-73.871-232.788-289.8L522.288,3666.658l-.163-.782-232.772-289.76L172,2791.778l-.163-.824L6.357,2584.865v5.93L170.21,2794.784l117.37,584.5.163.782,232.772,289.76,117.37,584.709.163.781L870.8,4545.08l82.732,412.014h2.343l-83.3-415.308Zm57.611-147.783L697.27,4103.42,579.916,3518.711l-.163-.782L346.965,3228.25,229.628,2643.83l-.163-.782L5.837,2364.693v5.93l222.05,276.419L345.257,3231.5l.163.823,232.772,289.76,117.354,584.5.163.783,232.772,289.76,112.131,558.314h2.327L930.188,4394ZM320.559,4183.8l-.163-.782-232.69-289.76L8.765,3500.305v11.817l77.168,384.3.163.824,232.772,289.719,117.37,584.5.146.782,153.164,190.69h4.669L437.962,4768.258Zm28.814-73.87-.163-.782-232.739-289.76L8.2,3280.133v11.817l106.583,530.6.163.782L347.714,4113.1l117.354,584.5.163.782L676.672,4961.5h4.669L466.792,4694.428ZM205.158,4478.54,10.669,4236.379v5.929l192.959,240.184,97.423,485.184h2.343l-98.058-488.314ZM1121.065,356.755l117.354,584.462.163.783,232.772,289.76,117.354,584.709.163.741,232.788,289.76,117.354,584.709.163.782,19.963,24.706v-6.094l-18.3-22.894-117.37-584.709-.163-.783-232.837-289.554-117.37-584.5-.163-.782-232.772-289.76-117.37-584.5-.146-.782L889.806,63.041,880.581,16.8h-2.343l10.087,50.194ZM830.7,214.777l232.772,289.76,117.37,584.708.146.782,232.788,289.39,117.354,584.709.146.782,232.788,289.76,117.354,584.709.163.741,78.095,97.3v-5.888l-76.6-95.365-117.37-584.462-.146-.782-232.723-290.008-117.37-584.709-.163-.782-232.772-289.6L1065.178,501.367l-.163-.782L832.244,210.825,793.57,18.241h-2.327l39.291,195.877ZM628.855,731.133l.163.782,232.755,289.76,117.37,584.709.163.782,232.772,289.76,117.37,584.708.146.782,232.772,289.76,117.37,584.709.163.782,232.772,289.76,49.525,246.689V3882.3l-47.8-238.042-.146-.782-232.772-289.76-117.37-584.709-.163-.782-232.788-290.172-117.37-584.5-.163-.783-232.707-289.8L863.482,1018.505l-.146-.783L630.547,727.962,513.193,143.46l-.163-.782L417.983,24.459h-4.669L511.42,146.548Zm28.814-73.871.146.782L890.6,947.8l117.354,584.709.163.782,232.772,289.76,117.37,584.709.146.782L1591.18,2697.9l117.37,584.5.163.783,232.772,289.76,20.142,100.348v-11.818l-18.4-91.7-.163-.782-232.772-289.8-117.37-584.709-.163-.741L1360,2404.182l-117.419-584.5-.163-.782-232.755-289.76L892.3,944.428l-.163-.782L659.377,654.091l-117.37-584.5-.163-.782L505.058,23.018h-4.669L540.3,72.677ZM1952.531,150.13V138.312l-18.417-91.742-.163-.782L1897.149,0h-4.669l39.91,49.659ZM744.257,436.473l232.772,289.76,117.37,584.709.146.782,232.772,289.8,117.37,584.462.163.782,232.772,289.8,117.37,584.462.163.782L1960.585,3267.7v-5.929l-163.9-204.2-117.354-584.5-.163-.782-232.772-289.925L1329.09,1598.025l-.146-.782-232.853-289.76L978.737,722.98l-.163-.782L745.8,432.355,663.054,20.588h-2.327l83.366,415.184Zm28.814-74.118,232.772,289.76L1123.2,1236.824l.163.782,232.788,289.8L1473.5,2112.116l.163.741,232.771,289.76,117.37,584.709.146.782,136.341,169.73v-5.929L1825.5,2984.156l-117.37-584.709-.146-.782-232.772-290.007-117.37-584.709-.163-.782L1124.9,1233.612l-117.354-584.5-.163-.782L774.616,358.566,706.576,19.682h-2.343L772.908,361.7Zm28.879-73.706,232.658,289.76,117.37,584.709.146.782,232.82,289.637,117.37,584.709.162.782,232.772,289.76L1852.6,2913.5l.162.783,107.25,133.495v-5.93l-105.754-131.765-117.354-584.5-.163-.741-232.739-290.048-117.354-584.709-.146-.782-232.788-289.554-117.354-584.5-.163-.782L803.43,284.7,750.081,18.982h-2.343l53.983,268.842ZM134.661,226.472l232.755,289.8L484.8,1100.735l.146.782,232.772,289.76,117.37,584.708.146.741,232.772,289.76,117.37,584.5.163.782,232.772,289.76,117.4,584.132.163.782,232.772,289.8,117.37,584.462.146.783,78.095,97.3v-5.929l-76.6-95.324-117.354-584.5-.163-.783-232.8-289.884-117.321-584.379-.163-.782-232.772-289.76-117.37-584.5-.163-.783-232.772-289.8L719.413,1387.9l-.146-.782-232.772-289.76-117.321-584.5-.146-.782L136.206,222.354,97.468,29.73H95.19l39.308,195.8Zm28.8-74.118L396.23,442.114,513.6,1026.823l.163.782,232.772,289.76,117.354,584.708.163.782,232.772,289.389,117.37,584.462.163.824,232.772,289.76L1564.481,3652l.162.783,232.772,289.76,117.386,584.3.163.782,49.07,61.064v-5.722l-47.508-59.131-117.4-584.667-.163-.783-232.772-289.76-117.37-584.709-.163-.782-232.755-289.6-117.37-584.462-.163-.782-232.755-289.76-117.354-584.5-.163-.783-232.788-289.76-117.37-584.5-.163-.782L165.02,148.442,141.039,29.03H138.7l24.616,122.542Zm261.585,215.93,117.37,584.709.163.782,232.772,289.76,117.37,584.709.163.782,232.837,289.349,117.37,584.5.163.741,232.674,289.925,117.37,584.709.163.782,232.772,289.76L1943.6,4453.5l.146.782,19.963,24.706v-5.929l-18.4-22.853L1827.954,3865.5l-.163-.823L1595,3574.752l-117.37-584.709-.146-.741L1244.7,2699.666,1127.345,2115.2l-.163-.782-232.772-289.76-117.354-584.5-.163-.782L544.122,949.616l-117.37-584.5-.163-.782L193.818,74.53l-9.274-46.2H182.2l10.071,50.194Zm175,436.72.163.782,232.755,289.76,117.386,584.709.146.782,232.772,289.76,117.37,584.709.163.823,232.755,289.719,117.37,584.708.163.741,232.8,289.184,78.908,393.031V4101.9l-77.281-384.385-.163-.782-232.772-289.76-117.354-584.709-.163-.782-232.739-289.554-117.37-584.5-.146-.741-232.771-289.8-117.37-584.5-.163-.782L601.831,801.833,484.38,217.33l-.163-.782L331.053,25.9h-4.669L482.671,220.46ZM77.033,374.049,309.8,663.809l117.37,584.709.146.782,232.772,289.76,117.452,584.3.163.783,232.772,289.76,117.354,584.5.163.741,232.772,289.76,117.354,584.5.163.823,232.772,289.72,117.37,584.708.163.782,136.341,169.73v-5.888l-134.795-167.794L1712.78,4160.778l-.163-.783-232.869-289.759L1362.394,3285.9l-.163-.741L1129.46,2995.191l-117.354-584.461-.163-.823L779.172,2120.145,661.8,1535.89l-.163-.823L428.867,1245.1,311.5,660.638l-.146-.823L78.579,370.1,10.522,31.171H8.2l68.675,342.1ZM571.228,878.916l.163.741,232.755,289.76,117.37,584.708.163.824,232.772,289.76,117.37,584.709.146.741L1504.8,2919.426l117.305,584.709.163.823,232.772,289.719,108.292,539.415v-11.817l-106.551-530.686-.163-.741-232.8-290.008-117.386-584.5-.163-.782-232.739-289.761-117.37-584.461-.163-.824-232.772-289.76-117.37-584.462-.146-.824L572.936,875.7,455.566,291.2l-.163-.741L244.043,27.341h-4.669L453.858,294.413ZM715.443,510.3l232.788,289.76,117.354,584.708.146.782,232.788,289.513,117.37,584.709.163.782,232.755,289.76,117.37,584.5.163.741,194.522,242.2v-5.929L1767.9,3131.609l-117.37-584.461-.163-.824-232.788-289.842-117.37-584.708-.146-.741-232.788-289.678L950,796.892l-.163-.823-232.853-289.6L619.565,21.124h-2.343L715.28,509.479Zm-609.6-210.125,232.772,289.76L455.973,1174.4l.163.782,232.772,289.8,117.354,584.462.163.823,232.788,289.76L1156.63,2924.49l.163.783,232.707,289.8,117.37,584.462.146.782,232.772,289.76,117.37,584.709.146.782,107.25,133.536v-5.929L1858.8,4671.411,1741.431,4086.7l-.163-.741-232.707-289.472L1391.208,3211.78l-.163-.824L1158.257,2921.32l-117.37-584.709-.163-.782L807.985,2046.48l-117.37-584.709-.163-.823L457.681,1171.229l-117.37-584.5-.163-.782L107.393,296.184,54.028,30.471H51.7l53.983,268.884ZM859.512,140.907l232.772,289.76,117.354,584.709.163.741,232.772,289.6,117.37,584.3.163.823,232.772,289.76,117.354,584.461.163.783,49.053,61.065v-5.888l-47.491-59.129-117.354-584.5-.163-.782-232.8-289.6L1444.28,1302.542l-.163-.824-232.772-289.76-117.354-584.5-.163-.741L861.057,136.954,837.076,17.541h-2.327L859.349,140ZM1497.938,277.16l232.755,289.76,117.37,584.709.163.782,107.25,133.289v-5.929l-105.754-131.56L1732.352,563.5l-.163-.782L1499.467,273.166,1446.118,7.453h-2.343l54,268.884ZM1440.31,424.9l232.755,289.76,117.37,584.709.162.782,165.448,205.883v-5.929L1792.16,1296.118,1674.79,711.409l-.146-.782-232.8-289.678L1359.108,8.894h-2.359l83.4,415.225ZM1411.5,498.773l232.755,289.76,117.37,584.709.162.783,194.538,242.16v-6.177L1763.33,1369.865,1645.96,785.157l-.146-.782L1413.042,494.82,1315.6,9.594h-2.327l98.058,488.355Zm57.611-147.742,232.772,289.76,117.37,584.709.163.782,136.341,169.73v-5.929l-134.8-167.795L1703.6,637.827l-.163-.824-232.8-289.925L1402.613,8.235h-2.343l68.74,342.013Zm-86.425,221.613L1615.438,862.4l117.37,584.709.146.782,223.628,278.4V1720.4L1734.5,1443.942,1617.13,859.233l-.146-.782-232.755-289.76L1272.146,10.335H1269.8l112.75,561.485Zm570.418-202.3V358.484l-47.817-238.042-.146-.782-95-118.218h-4.669l98.107,122.089Zm1.139,440.59V799.116L1847.656,268.184l-.163-.741L1636.133,4.324h-4.669l214.484,266.99Zm-.569-220.213V578.9l-77.2-384.549-.162-.824L1723.127,2.882h-4.653l156.287,194.766Zm-599.964,55.053.163.741,232.772,289.76,117.354,584.709.163.824,232.771,289.719,20.175,100.183v-11.818l-18.417-91.742-.163-.741-232.772-289.8-117.4-584.5-.163-.782-232.772-289.76-117.435-584.5-.163-.741L1201.1,11.488h-4.669l39.926,49.783Zm173.029-442.526,232.772,289.76,117.37,584.709.163.782,78.095,97.3v-5.93l-76.582-95.324L1761.215,490l-.163-.782L1528.281,199.3,1489.624,6.753h-2.343l39.292,195.754Zm-259.47,664.139.163.782,232.771,289.76,117.37,584.708.163.783,232.755,289.76L1958.8,2572.595v-11.818L1852.2,2030.01l-.163-.783-232.772-289.966-117.354-584.5-.163-.783-232.772-289.76-117.37-584.5-.146-.782L940.08,15.812H935.41l214.5,267.072Zm57.628-147.742.163.782,232.772,289.76,117.37,584.462.146.823,232.771,289.76,49.542,246.689V2120.1l-47.8-238.042-.163-.823-232.8-289.76-117.354-584.462-.163-.782L1326.6,716.474l-117.37-584.5-.163-.782L1114.1,12.929h-4.67l98.107,122.13Zm-28.814,73.871.163.782,232.771,289.76,117.354,584.708.163.783,232.772,289.76,78.925,392.99v-11.817l-77.216-384.59-.163-.782-232.772-289.76-117.354-584.461-.163-.782-232.772-289.76-117.37-584.462-.146-.782L1027.09,14.371h-4.669l156.3,194.56Zm259.47-664.138,232.772,289.76,117.354,584.709.162.782,49.07,61.065v-5.888l-47.508-59.212-117.37-584.709-.163-.782L1557.094,125.424,1533.129,6.012h-2.294l24.6,122.542Zm261.634,215.889,117.37,584.709.146.782,19.963,24.706v-5.888l-18.466-23.1L1818.81,342.1l-.163-.782L1585.908,51.553l-9.29-46.241h-2.327l10.071,50.153ZM686.678,584.091,919.45,873.851l117.37,584.709.163.782,232.723,289.637,117.354,584.709.163.782,232.772,289.554,117.37,584.462.163.824,223.628,278.354v-5.888l-222.066-276.46-117.386-584.5-.163-.782-232.771-289.719-117.354-584.42-.163-.823-232.772-289.8L921.109,870.557l-.163-.741L688.175,580.22,576.06,21.824h-2.327l112.7,561.567Z" transform="translate(0.15)"/><rect class="d" width="1965.389" height="4894.751" transform="translate(9.762 41.878)"/></g></svg>