<svg xmlns="http://www.w3.org/2000/svg" width="42.906" height="42" viewBox="0 0 42.906 42"><defs><style>.a{fill:#eeeeee;}</style></defs><g transform="translate(0)"><g transform="translate(0 0)"><path class="a" d="M40.906,4.08H2a2,2,0,0,0-2,2v5.912a2,2,0,0,0,2,2H7.948v8c-1.049,1.2-5.459,6.41-5.992,9.86a.89.89,0,0,0,0,.133v13.2a.889.889,0,0,0,.889.889H13.621a.889.889,0,0,0,.729-.382L18.9,39.145a.89.89,0,0,0,.124-.276c0-.142.471-1.725,1-3.894H34.069a.889.889,0,0,0,.889-.889V13.993h5.948a2,2,0,0,0,2-2V6.08A2,2,0,0,0,40.906,4.08ZM20.066,25.524a111.471,111.471,0,0,1-2.712,12.723l-4.205,6.046H3.725v-12.2c.347-2.027,2.516-5.139,4.223-7.282v9.273a.889.889,0,0,0,.889.889h3.21a.889.889,0,0,0,.32-.062l.1-.053a.893.893,0,0,0,.178-.116l.08-.089a.892.892,0,0,0,.107-.16l.053-.116v-.062c.889-3.29,2.827-8.971,4.294-10.233,1-.889,1.574-.987,1.823-.987a.587.587,0,0,1,.48.231A3.485,3.485,0,0,1,20.066,25.524ZM33.18,33.2H20.449c.551-2.409,1.111-5.183,1.387-7.459a5.236,5.236,0,0,0-1-3.556,2.365,2.365,0,0,0-1.778-.827,4.765,4.765,0,0,0-2.987,1.414C14,24.546,12.029,31.028,11.4,33.233H9.726V9.966H33.18Zm7.948-21.213a.222.222,0,0,1-.222.222H34.958V9.966h1.609a.889.889,0,1,0,0-1.778H6.339a.889.889,0,0,0,0,1.778H7.957v2.285H2a.222.222,0,0,1-.222-.222V6.08A.222.222,0,0,1,2,5.858H40.906a.222.222,0,0,1,.222.222Z" transform="translate(0 -4.08)"/></g></g></svg>